<?xml version="1.0" encoding="utf-8"?>
<!-- Generator: Adobe Illustrator 26.0.3, SVG Export Plug-In . SVG Version: 6.00 Build 0)  -->
<svg version="1.1" id="Capa_1" xmlns="http://www.w3.org/2000/svg" xmlns:xlink="http://www.w3.org/1999/xlink" x="0px" y="0px"
	 viewBox="0 0 1188 208.6" style="enable-background:new 0 0 1188 208.6;" xml:space="preserve">
<style type="text/css">
	.st0{fill:#D90083;}
</style>
<g>
	<g>
		<path class="st0" d="M463.8,40.7h42.9V168h-42.9V40.7z"/>
		<path class="st0" d="M519.5,157.8l13.8-31.3c12,7.1,28,11.6,42,11.6c12.2,0,16.5-2.5,16.5-6.9c0-16-70.4-3.1-70.4-50.5
			c0-23.6,19.8-42.9,59.3-42.9c17.1,0,34.7,3.6,48,11.1L615.8,80c-12.5-6.4-24.4-9.5-35.5-9.5c-12.5,0-16.5,3.6-16.5,8
			c0,15.3,70.4,2.5,70.4,49.5c0,23.3-19.8,42.9-59.3,42.9C553.7,170.9,532.2,165.6,519.5,157.8z"/>
	</g>
	<g>
		<path class="st0" d="M7.3,40.7h42.9v94h57.5V168H7.3V40.7z"/>
		<path class="st0" d="M119.5,40.7h42.9V168h-42.9C119.5,168,119.5,40.7,119.5,40.7z"/>
		<path class="st0" d="M226.1,73v21.8h53.1v32.4h-53.1V168h-42.9V40.7h103.5V73H226.1z"/>
		<path class="st0" d="M406.1,135.6V168H300.3V40.7h103.5V73h-61.3v15h53.8v30.9h-53.8v16.7H406.1z"/>
	</g>
	<g>
		<path class="st0" d="M803.2,40.7V168h-35.3l-48.4-57.8V168h-41.8V40.7H713l48.4,57.8V40.7H803.2z"/>
		<path class="st0" d="M818.8,104.3c0-38.5,30.4-66.5,71.8-66.5s71.8,28,71.8,66.5s-30.4,66.5-71.8,66.5S818.8,142.9,818.8,104.3z
			 M919.2,104.3c0-19.8-12.7-31.8-28.5-31.8s-28.5,12-28.5,31.8s12.7,31.8,28.5,31.8S919.2,124.1,919.2,104.3z"/>
		<path class="st0" d="M1180.7,40.7L1139.9,168h-46l-20.5-68l-21.6,68h-46L965,40.7h44.2l22.2,72.4l23.5-72.4h39.5l22.2,73.3
			l23.5-73.3C1140.1,40.7,1180.7,40.7,1180.7,40.7z"/>
	</g>
</g>
</svg>
