<?xml version="1.0" encoding="utf-8"?>
<!-- Generator: Adobe Illustrator 26.0.2, SVG Export Plug-In . SVG Version: 6.00 Build 0)  -->
<svg version="1.1" id="Capa_1" xmlns="http://www.w3.org/2000/svg" xmlns:xlink="http://www.w3.org/1999/xlink" x="0px" y="0px"
	 viewBox="0 0 424.2 68.2" style="enable-background:new 0 0 424.2 68.2;" xml:space="preserve">
<style type="text/css">
	.st0{clip-path:url(#SVGID_00000010997319741778364700000002705719423897046190_);}
	.st1{clip-path:url(#SVGID_00000052067421964938372500000003150638014028032405_);fill:#FFFFFF;}
	
		.st2{clip-path:url(#SVGID_00000052067421964938372500000003150638014028032405_);fill-rule:evenodd;clip-rule:evenodd;fill:#FFFFFF;}
</style>
<g id="Ilustración_6_00000062882850682345064660000015493673960351876493_">
	<g>
		<defs>
			<rect id="SVGID_1_" width="424.2" height="68.2"/>
		</defs>
		<clipPath id="SVGID_00000087376724011165278650000011131301352168364440_">
			<use xlink:href="#SVGID_1_"  style="overflow:visible;"/>
		</clipPath>
		<g style="clip-path:url(#SVGID_00000087376724011165278650000011131301352168364440_);">
			<defs>
				<rect id="SVGID_00000170970896026069457200000004133042313792517806_" y="0" width="424.2" height="68.2"/>
			</defs>
			<clipPath id="SVGID_00000164483207010580918850000018228763063350031247_">
				<use xlink:href="#SVGID_00000170970896026069457200000004133042313792517806_"  style="overflow:visible;"/>
			</clipPath>
			<path style="clip-path:url(#SVGID_00000164483207010580918850000018228763063350031247_);fill:#FFFFFF;" d="M0,58.1V15.8h21
				c8.3,0,12.5,1.7,12.5,11c0,4.9-0.9,8.1-6,9.4v0.2c5.9,0.7,7,4.6,7,9.9c0,9.4-3.8,11.8-12.7,11.8H0z M8.1,33.5h11.7
				c4.6,0,5.6-1.4,5.6-5.9c0-4.5-1.8-4.8-5.8-4.8H8.1V33.5z M8.1,51.2h11.1c4.8,0,7.2-0.3,7.2-5.5c0-4.6-1-6-5.8-6H8.1V51.2z"/>
			<path style="clip-path:url(#SVGID_00000164483207010580918850000018228763063350031247_);fill:#FFFFFF;" d="M77.1,30.9v11.4
				c0,13.5-5.2,16.1-18,16.1c-13.1,0-17.9-2.3-17.9-16.1V30.9c0-13.1,4.5-15.4,17.9-15.4C71.3,15.5,77.1,17.3,77.1,30.9 M49.3,30.9
				v11.4c0,8.4,1.6,9.2,9.8,9.2c7.4,0,9.9-1,9.9-9.2V30.9c0.2-7.9-2.7-8.5-9.9-8.5C50.3,22.4,49.5,24.2,49.3,30.9"/>
			<path style="clip-path:url(#SVGID_00000164483207010580918850000018228763063350031247_);fill:#FFFFFF;" d="M83.8,15.8H104
				c11.7,0,16.6,4.2,16.6,15.7v10c0,8.8-2.5,16.6-15.3,16.6H83.8V15.8z M105.4,51.2c5.5,0,7.2-4.9,7.2-9.6v-10
				c0-7.1-2.3-8.8-8.5-8.8H92v28.4H105.4z"/>
			<polygon style="clip-path:url(#SVGID_00000164483207010580918850000018228763063350031247_);fill:#FFFFFF;" points="144.4,41.9 
				144.4,58.1 136.2,58.1 136.2,41.9 121,15.8 130.2,15.8 140.2,33.9 140.4,33.9 150.6,15.8 160,15.8 			"/>
			<path style="clip-path:url(#SVGID_00000164483207010580918850000018228763063350031247_);fill:#FFFFFF;" d="M272.4,44.6v2
				c0,4.9,2.1,5.2,9.6,5.2c7.4,0,8.4-1.4,8.4-6.3c0-6-3.2-5.2-9.5-5.6c-9.1-0.6-16.4-0.2-16.4-12.5c0-11.6,7.3-12,17.5-12
				c8.6,0,15.7,0.3,15.7,11.4v1.4h-8.1v-1.4c0-4.6-1.9-4.7-7.6-4.7c-8.1,0-9.4,0.8-9.4,5.3c0,5.2,1.1,5.4,9.3,5.9
				c13,0.8,16.6,1.5,16.6,12.2c0,11.9-5.6,12.9-16.5,12.9c-9.4,0-17.7,0.3-17.7-11.8v-2H272.4z"/>
			<polygon style="clip-path:url(#SVGID_00000164483207010580918850000018228763063350031247_);fill:#FFFFFF;" points="341.1,58.1 
				333,58.1 333,40.1 313.3,40.1 313.3,58.1 305.2,58.1 305.2,15.8 313.3,15.8 313.3,33.1 333,33.1 333,15.8 341.1,15.8 			"/>
			<path style="clip-path:url(#SVGID_00000164483207010580918850000018228763063350031247_);fill:#FFFFFF;" d="M383.7,30.9v11.4
				c0,13.5-5.2,16.1-18,16.1c-13.1,0-17.9-2.3-17.9-16.1V30.9c0-13.1,4.5-15.4,17.9-15.4C377.9,15.5,383.7,17.3,383.7,30.9
				 M355.9,30.9v11.4c0,8.4,1.6,9.2,9.8,9.2c7.4,0,9.9-1,9.9-9.2V30.9c0.2-7.9-2.7-8.5-9.9-8.5C357,22.4,356.1,24.2,355.9,30.9"/>
			<path style="clip-path:url(#SVGID_00000164483207010580918850000018228763063350031247_);fill:#FFFFFF;" d="M390.4,15.8h18.7
				c11.3,0,15.1,2.7,15.1,14.5c0,11.9-4,14-15.1,14h-10.6v13.7h-8.1V15.8z M409.2,37.5c5.8-0.1,6.9-1.2,6.9-7.1c0-6-0.8-7.7-6.9-7.6
				h-10.6v14.7H409.2z"/>
			<path style="clip-path:url(#SVGID_00000164483207010580918850000018228763063350031247_);fill:#FFFFFF;" d="M202.9,10.6
				c1.2-6.7,6.2-11.4,11.3-10.5c5.1,0.9,8.2,7.1,7.1,13.8c-1.2,6.7-6.2,11.4-11.3,10.5C204.8,23.5,201.7,17.3,202.9,10.6"/>
			
				<path style="clip-path:url(#SVGID_00000164483207010580918850000018228763063350031247_);fill-rule:evenodd;clip-rule:evenodd;fill:#FFFFFF;" d="
				M164.4,36.1l82.4-18.3l-44.5,50.5C202.4,68.2,207.1,31.8,164.4,36.1"/>
		</g>
	</g>
</g>
</svg>
