<svg id="Capa_1" data-name="Capa 1" xmlns="http://www.w3.org/2000/svg" viewBox="0 0 50 50"><defs><style>.cls-1{fill:#fff;}</style></defs><path class="cls-1" d="M6.32,21.83,6.74,19h-1l-.52,3.36a.41.41,0,0,0,.41.44H8.8L8.93,22H6.43a.11.11,0,0,1-.11-.13Z"/><path class="cls-1" d="M23.93,21.85l.34-2.37h-.92l-.45,3a.34.34,0,0,0,.36.35H26l.13-.84H24a.11.11,0,0,1-.11-.11Z"/><path class="cls-1" d="M27.46,21.85l.34-2.37h-.92l-.45,3a.35.35,0,0,0,.36.35h2.72l.13-.84H27.57a.12.12,0,0,1-.11-.11Z"/><polygon class="cls-1" points="22 19.48 21.48 22.8 22.44 22.8 22.95 19.48 22 19.48 22 19.48"/><path class="cls-1" d="M20.14,19a.2.2,0,0,0-.21.13S19.19,21,19.19,21l0,0s0,0,0,0-.2-1.86-.2-1.86a.17.17,0,0,0-.18-.15H17.31l-.6,3.8h1l.37-2.48.33,2.27a.21.21,0,0,0,.22.21h.49a.24.24,0,0,0,.22-.16l1.1-2.32-.37,2.48h1l.61-3.8Z"/><path class="cls-1" d="M10.32,21.61s0-.05,0-.05h2.12c.21,0,.36-.11.4-.39l.22-1.38a.28.28,0,0,0-.29-.31h-2.7a.48.48,0,0,0-.47.46l-.39,2.48a.31.31,0,0,0,.32.38h3.06l.13-.83H10.32a.06.06,0,0,1-.05-.06l.05-.3Zm.15-.94,0-.31a0,0,0,0,1,0,0h1.51a.05.05,0,0,1,0,.05l0,.31a0,0,0,0,1-.05.05h-1.5a.05.05,0,0,1,0-.06Z"/><path class="cls-1" d="M14.34,20.36a0,0,0,0,1,0,0h2.31l.14-.84H14a.46.46,0,0,0-.48.38l-.22,1.4a.27.27,0,0,0,.27.3h2a0,0,0,0,1,.05.06l-.05.3a.05.05,0,0,1,0,0H13.17L13,22.8H16a.38.38,0,0,0,.4-.29L16.59,21a.28.28,0,0,0-.3-.31H14.34a.05.05,0,0,1-.05-.06l.05-.31Z"/><path class="cls-1" d="M31.2,20.36a.05.05,0,0,1,.05,0h2.31l.14-.84H30.85a.45.45,0,0,0-.48.38l-.22,1.4a.27.27,0,0,0,.27.3h2a.06.06,0,0,1,.05.06l-.05.3a.05.05,0,0,1,0,0H30l-.13.83h2.92a.36.36,0,0,0,.39-.29L33.45,21a.27.27,0,0,0-.29-.31h-2a.06.06,0,0,1-.05-.06l.05-.31Z"/><path class="cls-1" d="M6.2,31a2.38,2.38,0,0,0,1.58-.54A2.2,2.2,0,0,0,8.58,29,1.4,1.4,0,0,0,8.41,28a1.46,1.46,0,0,0-1-.48,1.5,1.5,0,0,0,1.5-1.39,1.59,1.59,0,0,0-.37-1.41,2.24,2.24,0,0,0-1.7-.54H4.69L3.61,31Zm-.3-2.8h.15a.73.73,0,0,1,.54.18.53.53,0,0,1,.13.49.8.8,0,0,1-.29.5.94.94,0,0,1-.58.19H5.69L5.9,28.2Zm.42-2.62h.19c.43,0,.62.2.56.59a.67.67,0,0,1-.26.44,1,1,0,0,1-.55.15H6.13l.19-1.17Zm7.65-.5a1.86,1.86,0,0,0-1.74-.94,2.7,2.7,0,0,0-1.78.69,4.29,4.29,0,0,0-1.38,2.69,3.39,3.39,0,0,0,.48,2.76,2,2,0,0,0,1.62.72,2.62,2.62,0,0,0,2-.94,4.66,4.66,0,0,0,1.11-2.47A3.75,3.75,0,0,0,14,25.08ZM12,28.9c-.17.3-.36.46-.58.46S11,29.2,11,28.89a3.92,3.92,0,0,1,0-1.32,4.24,4.24,0,0,1,.4-1.31c.18-.31.38-.47.6-.47.44,0,.56.6.37,1.82A4.12,4.12,0,0,1,12,28.9ZM15.9,31a3.21,3.21,0,0,0,2.28-.79,4.45,4.45,0,0,0,1.27-2.63,3.15,3.15,0,0,0-.58-2.7,2.56,2.56,0,0,0-2-.74h-1.6L14.16,31Zm.93-5.13h.06a.64.64,0,0,1,.61.48,2.67,2.67,0,0,1,0,1.29c-.17,1.11-.59,1.68-1.26,1.72l.55-3.49Zm5.49,2.23,2.22-4H22.62l-.5,1c-.06.11-.12.26-.2.44s-.18.4-.28.65c0-.17,0-.34-.06-.53s0-.37-.08-.57l-.18-1H19.39l1.08,4L20,31h1.85l.46-2.9Zm3.64.65h.29a3,3,0,0,0,1.66-.41A2.63,2.63,0,0,0,29,26.48a1.88,1.88,0,0,0-.48-1.79,2.63,2.63,0,0,0-1.9-.55H24.84L23.75,31H25.6L26,28.75Zm.48-3h.12A.54.54,0,0,1,27,26a.78.78,0,0,1,.1.58.92.92,0,0,1-.29.57.84.84,0,0,1-.57.2h-.08l.25-1.57ZM32,28.54a1.54,1.54,0,0,1-.2.64.46.46,0,0,1-.4.18.32.32,0,0,1-.33-.19,1.14,1.14,0,0,1,0-.63l.69-4.4H29.85l-.71,4.51a1.87,1.87,0,0,0,.52,1.89,2.32,2.32,0,0,0,1.52.46,2.7,2.7,0,0,0,1.49-.42,2.34,2.34,0,0,0,.73-.7,2.46,2.46,0,0,0,.35-1l.75-4.77H32.65l-.7,4.4Zm9.22-4.4H38.93l-.85,2.48a11.9,11.9,0,0,0-.34,1.17c0-.26,0-.5,0-.72s0-.43,0-.62l0-2.31h-2.3L33.58,31h2l.65-3.11.25-1.27c0,.21,0,.34,0,.4,0,.44,0,.74,0,.92V31H38l1.09-3.06c.07-.2.14-.41.2-.63s.13-.45.19-.69l-.14,1.25L38.88,31h1.87l.42-6.86Zm2.13,4.61h.29a3,3,0,0,0,1.66-.41,2.63,2.63,0,0,0,1.1-1.86,1.88,1.88,0,0,0-.48-1.79,2.63,2.63,0,0,0-1.9-.55H42.18L41.09,31h1.85l.36-2.25Zm.48-3h.13a.53.53,0,0,1,.46.22.78.78,0,0,1,.1.58.92.92,0,0,1-.29.57.84.84,0,0,1-.57.2h-.08l.25-1.57Z"/></svg>