<svg id="Capa_1" data-name="Capa 1" xmlns="http://www.w3.org/2000/svg" viewBox="0 0 50 50"><defs><style>.cls-1{fill:#fff;}</style></defs><path class="cls-1" d="M2.77,22l.39-2.67H2.25l-.49,3.16a.39.39,0,0,0,.39.42H5.1l.13-.79H2.88A.11.11,0,0,1,2.77,22Z"/><path class="cls-1" d="M19.14,22l.32-2.22h-.87l-.42,2.79a.32.32,0,0,0,.33.33h2.56l.12-.79H19.23a.1.1,0,0,1-.09-.11Z"/><path class="cls-1" d="M22.46,22l.32-2.22h-.86l-.43,2.79a.33.33,0,0,0,.34.33h2.56l.12-.79h-2a.11.11,0,0,1-.1-.11Z"/><polygon class="cls-1" points="17.32 19.8 16.83 22.93 17.73 22.93 18.22 19.8 17.32 19.8 17.32 19.8"/><path class="cls-1" d="M15.57,19.35c-.15,0-.2.1-.2.12l-.7,1.77s0,0,0,0,0,0,0,0-.19-1.74-.19-1.74a.17.17,0,0,0-.17-.15H12.9l-.56,3.58h.93l.35-2.34.31,2.14a.2.2,0,0,0,.2.2h.47a.23.23,0,0,0,.21-.15l1-2.19-.35,2.34h1L17,19.35Z"/><path class="cls-1" d="M6.32,21.81s0,0,0,0h2c.2,0,.34-.11.38-.37L9,20.09a.26.26,0,0,0-.28-.29H6.13a.46.46,0,0,0-.44.44l-.37,2.34a.29.29,0,0,0,.31.35H8.51l.12-.79H6.32a0,0,0,0,1,0-.05l0-.28Zm.14-.88,0-.3a0,0,0,0,1,0,0H8a.05.05,0,0,1,0,.05l0,.3a0,0,0,0,1,0,0H6.51a.05.05,0,0,1,0-.05Z"/><path class="cls-1" d="M10.1,20.63a.07.07,0,0,1,.05,0h2.17l.13-.78H9.77a.43.43,0,0,0-.46.35l-.2,1.32a.26.26,0,0,0,.25.28h1.87a.05.05,0,0,1,0,0l0,.29s0,0-.05,0H9l-.13.79h2.76a.36.36,0,0,0,.37-.28l.21-1.38A.25.25,0,0,0,12,21H10.1s0,0,0-.05l0-.3Z"/><path class="cls-1" d="M26,20.63a.07.07,0,0,1,.05,0H28.2l.13-.78H25.65a.41.41,0,0,0-.45.35L25,21.48a.26.26,0,0,0,.25.28h1.87a.05.05,0,0,1,.05,0l-.05.29s0,0-.05,0H24.89l-.13.79h2.76a.36.36,0,0,0,.37-.28l.21-1.38a.25.25,0,0,0-.27-.29H26s-.05,0,0-.05l0-.3Z"/><path class="cls-1" d="M2.44,30.65a2.26,2.26,0,0,0,1.49-.51,2,2,0,0,0,.75-1.34,1.28,1.28,0,0,0-.16-1,1.29,1.29,0,0,0-.93-.45A1.43,1.43,0,0,0,5,26a1.52,1.52,0,0,0-.34-1.33,2.17,2.17,0,0,0-1.61-.5H1L0,30.65ZM2.16,28H2.3a.71.71,0,0,1,.51.17.5.5,0,0,1,.12.46.69.69,0,0,1-.27.47.85.85,0,0,1-.55.18H2L2.16,28Zm.39-2.47h.18c.41,0,.59.19.53.57a.57.57,0,0,1-.25.4.84.84,0,0,1-.52.15H2.38l.17-1.11Zm7-.47A1.78,1.78,0,0,0,8,24.19a2.55,2.55,0,0,0-1.68.65A4,4,0,0,0,5,27.37,3.15,3.15,0,0,0,5.42,30,1.93,1.93,0,0,0,7,30.65a2.5,2.5,0,0,0,1.89-.89,4.37,4.37,0,0,0,1-2.32,3.55,3.55,0,0,0-.29-2.37ZM7.7,28.67c-.16.29-.34.43-.55.43s-.33-.15-.4-.44a3.28,3.28,0,0,1,0-1.24,3.6,3.6,0,0,1,.37-1.23q.25-.45.57-.45c.41,0,.52.57.34,1.72a3.79,3.79,0,0,1-.36,1.21Zm3.7,2a3,3,0,0,0,2.15-.75,4.1,4.1,0,0,0,1.19-2.48,3,3,0,0,0-.54-2.53,2.38,2.38,0,0,0-1.9-.7H10.79l-1,6.46Zm.88-4.84h.05a.62.62,0,0,1,.58.46,2.51,2.51,0,0,1,0,1.22c-.16,1-.56,1.58-1.19,1.61l.52-3.29Zm5.17,2.1,2.09-3.72H17.73l-.47,1c-.05.1-.12.24-.19.41s-.16.38-.27.62c0-.16,0-.33-.05-.5s-.05-.35-.08-.54l-.16-1H14.69l1,3.72-.43,2.74H17l.44-2.74Zm3.78,2.74a2.25,2.25,0,0,0,1.49-.51,2,2,0,0,0,.75-1.34,1.11,1.11,0,0,0-1.09-1.46A1.43,1.43,0,0,0,23.79,26a1.52,1.52,0,0,0-.34-1.33,2.17,2.17,0,0,0-1.61-.5h-2l-1,6.46ZM21,28h.14a.71.71,0,0,1,.51.17.5.5,0,0,1,.12.46.69.69,0,0,1-.27.47.85.85,0,0,1-.55.18h-.15L21,28Zm.39-2.47h.18c.41,0,.59.19.53.57a.57.57,0,0,1-.25.4.84.84,0,0,1-.52.15h-.11l.17-1.11Zm6.48-1.35H25.69l-2.58,6.46h1.81l.27-.82h1.17v.82h1.81l-.35-6.46Zm-2.18,4.28.33-1,.25-.78a1.28,1.28,0,0,1,0-.13c0-.06,0-.18.09-.35s0-.17.07-.24,0-.14.06-.2l0,.61c0,.13,0,.23,0,.31a1.56,1.56,0,0,0,0,.2q0,.63,0,.72v.87Zm6,.63H30.32l.78-4.91H29.35l-1,6.46h3.05l.25-1.55Zm4.64-4.91H34.13l-2.57,6.46h1.8l.27-.82h1.18v.82h1.8l-.34-6.46Zm-2.19,4.28.34-1,.24-.78a1.11,1.11,0,0,0,0-.13l.1-.35c0-.09.05-.17.07-.24s0-.14.05-.2l0,.61c0,.13,0,.23,0,.31a1.15,1.15,0,0,1,0,.2c0,.42,0,.66,0,.72a.94.94,0,0,0,0,.12v.75Zm4.37,2.18L38.72,29c0-.25.07-.55.09-.89s0-.73,0-1.18c0,.2.07.41.11.63s.09.46.15.71l.56,2.38h1.68l1-6.46H40.68l-.23,1.45c0,.27-.08.61-.11,1s-.06.88-.08,1.44l-.09-.57c0-.23-.07-.43-.11-.6s-.06-.33-.08-.46l-.52-2.27H37.8l-1,6.46Zm6.28-1.55a.94.94,0,0,1-.45-.11.75.75,0,0,1-.29-.32,1.52,1.52,0,0,1-.13-.52,2.83,2.83,0,0,1,0-.7,2.69,2.69,0,0,1,.5-1.26,1.14,1.14,0,0,1,.91-.45,1,1,0,0,1,.74.39l.28-1.79a2.48,2.48,0,0,0-.84-.15,3.11,3.11,0,0,0-2.22.89,4.12,4.12,0,0,0-1.15,2.37,3,3,0,0,0,.44,2.43,2.09,2.09,0,0,0,1.71.77,3.18,3.18,0,0,0,1.07-.22l.38-1.75a1.6,1.6,0,0,1-1,.42ZM49,30.65l.24-1.55H47.73l.15-1h1.34l.25-1.55H48.13l.13-.82h1.5L50,24.19H46.76l-1,6.46Z"/></svg>