<svg id="Capa_1" data-name="Capa 1" xmlns="http://www.w3.org/2000/svg" viewBox="0 0 50 50"><defs><style>.cls-1{fill:#fff;}</style></defs><path class="cls-1" d="M14.44,16.61a5.22,5.22,0,0,1,1.08.1,2.31,2.31,0,0,1,.83.35,1.6,1.6,0,0,1,.55.63,2.34,2.34,0,0,1,.19,1,1.82,1.82,0,0,1-.29,1,2.09,2.09,0,0,1-.84.69,2,2,0,0,1,1.14.77,2.24,2.24,0,0,1,.38,1.33,2.34,2.34,0,0,1-.24,1.09,2,2,0,0,1-.66.75,2.89,2.89,0,0,1-.94.43,4.4,4.4,0,0,1-1.09.14h-4v-8.3ZM14.2,20a1.36,1.36,0,0,0,.81-.23.89.89,0,0,0,.31-.76,1,1,0,0,0-.1-.48.86.86,0,0,0-.28-.29,1.06,1.06,0,0,0-.4-.14,2.52,2.52,0,0,0-.48,0h-1.7V20Zm.11,3.52a2.76,2.76,0,0,0,.51,0,1.39,1.39,0,0,0,.43-.18,1,1,0,0,0,.3-.33,1.19,1.19,0,0,0,.11-.53,1.09,1.09,0,0,0-.36-.92,1.56,1.56,0,0,0-1-.27h-2v2.28Z"/><path class="cls-1" d="M17.94,19.07a4,4,0,0,1,.8-1.39A3.53,3.53,0,0,1,20,16.75a4.52,4.52,0,0,1,3.44,0,3.61,3.61,0,0,1,1.28.93,4.33,4.33,0,0,1,.8,1.39,5.3,5.3,0,0,1,.28,1.72,5.12,5.12,0,0,1-.28,1.69,4.23,4.23,0,0,1-.8,1.37,3.69,3.69,0,0,1-1.28.91,4.65,4.65,0,0,1-3.44,0,3.6,3.6,0,0,1-1.28-.91,3.9,3.9,0,0,1-.8-1.37,4.87,4.87,0,0,1-.28-1.69A5,5,0,0,1,17.94,19.07Zm1.66,2.74a2.65,2.65,0,0,0,.39.89,2,2,0,0,0,.7.63,2.14,2.14,0,0,0,1,.24,2.08,2.08,0,0,0,1-.24,2,2,0,0,0,.7-.63,2.65,2.65,0,0,0,.39-.89,4.31,4.31,0,0,0,.12-1,4.57,4.57,0,0,0-.12-1.05,2.72,2.72,0,0,0-.39-.92,2.05,2.05,0,0,0-.7-.64,2.08,2.08,0,0,0-1-.23,2.14,2.14,0,0,0-1,.23,2.05,2.05,0,0,0-.7.64,2.72,2.72,0,0,0-.39.92,4.57,4.57,0,0,0-.12,1.05A4.31,4.31,0,0,0,19.6,21.81Z"/><path class="cls-1" d="M29.94,16.61a4.29,4.29,0,0,1,1.5.25,3.18,3.18,0,0,1,1.19.77,3.51,3.51,0,0,1,.79,1.28,5.15,5.15,0,0,1,.29,1.8,6,6,0,0,1-.23,1.68,3.65,3.65,0,0,1-.71,1.32,3.23,3.23,0,0,1-1.17.88,4,4,0,0,1-1.66.32H26.36v-8.3Zm-.12,6.76a2.46,2.46,0,0,0,.76-.12,1.79,1.79,0,0,0,.67-.43,2.22,2.22,0,0,0,.46-.77,3.34,3.34,0,0,0,.17-1.16,5,5,0,0,0-.12-1.14,2.2,2.2,0,0,0-.4-.86,1.76,1.76,0,0,0-.74-.56,3.06,3.06,0,0,0-1.13-.19h-1.3v5.23Z"/><path class="cls-1" d="M16.29,25.3v1.8H11.6v2.24h4.06V31H11.6v4H9.47V25.3Z"/><path class="cls-1" d="M18.84,25.3v7.91h4.72V35H16.71V25.3Z"/><path class="cls-1" d="M31.19,25.3v1.8H26.08v2.07h4.69v1.66H26.08v2.38H31.3V35H23.94V25.3Z"/><path class="cls-1" d="M31.18,25.3h2.47l1.9,3.1,2-3.1h2.34l-3.11,4.63L40.13,35H37.59l-2.12-3.35L33.31,35H30.92l3.38-5.08Z"/><path class="cls-1" d="M39.23,15.78c-.43.27-.85.55-1.26.83-.73.51-2.06,1.68-2.19,1.68s-.68-.55-1-.76l-.57-.42-.58-.42c-.38-.28-.78-.54-1.17-.81s-.8-.52-1.21-.77c.33.35.67.68,1,1s.7.65,1.05,1l.54.47.54.46.77.64v0h0c0,.66-.07,1.33-.08,2s0,1.33,0,2,0,1.34.08,2,.1,1.34.2,2c.17-.66.19-3.79.3-4.45v-.08c.09.58.26,3.7.39,4.28.08-.65.13-1.3.17-1.95s.06-1.3.08-1.94c0-1.3,0-2.59,0-3.88a.43.43,0,0,0,0-.05c.68-.52,1.35-1.06,2-1.6l1.14-1c.37-.34.74-.68,1.09-1.05C40.08,15.24,39.66,15.51,39.23,15.78Z"/><path class="cls-1" d="M35.81,17.51a1.4,1.4,0,0,0,.52-.44.76.76,0,0,0,0-.88,1.48,1.48,0,0,0-.52-.43,1.44,1.44,0,0,0-.53.43.76.76,0,0,0,0,.88A1.37,1.37,0,0,0,35.81,17.51Z"/></svg>