<svg id="Capa_1" data-name="Capa 1" xmlns="http://www.w3.org/2000/svg" viewBox="0 0 50 50"><defs><style>.cls-1{fill:#fff;}</style></defs><path class="cls-1" d="M2.61,21.83,3,19h-1l-.51,3.36A.41.41,0,0,0,2,22.8H5.09L5.22,22H2.73a.12.12,0,0,1-.12-.13Z"/><path class="cls-1" d="M20.23,21.85l.34-2.37h-.92l-.45,3a.34.34,0,0,0,.35.35h2.72L22.4,22H20.33a.1.1,0,0,1-.1-.11Z"/><path class="cls-1" d="M23.76,21.85l.34-2.37h-.92l-.45,3a.34.34,0,0,0,.36.35H25.8l.13-.84H23.86a.1.1,0,0,1-.1-.11Z"/><polygon class="cls-1" points="18.29 19.48 17.78 22.8 18.74 22.8 19.25 19.48 18.29 19.48 18.29 19.48"/><path class="cls-1" d="M16.44,19a.23.23,0,0,0-.22.13L15.48,21s0,0,0,0l0,0s-.19-1.86-.19-1.86a.19.19,0,0,0-.19-.15H13.6L13,22.8h1l.37-2.48.33,2.27a.22.22,0,0,0,.22.21h.5a.24.24,0,0,0,.22-.16l1.1-2.32-.38,2.48h1L18,19Z"/><path class="cls-1" d="M6.62,21.61a0,0,0,0,1,0-.05H8.78c.22,0,.36-.11.41-.39l.21-1.38a.27.27,0,0,0-.29-.31H6.41a.49.49,0,0,0-.47.46l-.38,2.48a.3.3,0,0,0,.32.38H8.93L9.07,22H6.62a.05.05,0,0,1,0-.06l0-.3Zm.14-.94,0-.31s0,0,.05,0H8.37s.05,0,0,.05l0,.31s0,.05,0,.05H6.81a.06.06,0,0,1,0-.06Z"/><path class="cls-1" d="M10.63,20.36s0,0,0,0H13l.14-.84H10.27a.46.46,0,0,0-.48.38l-.21,1.4a.27.27,0,0,0,.27.3h2a.06.06,0,0,1,.05.06l-.05.3s0,0-.05,0H9.47l-.13.83h2.92a.37.37,0,0,0,.39-.29L12.88,21a.27.27,0,0,0-.29-.31h-2a.06.06,0,0,1-.05-.06l.05-.31Z"/><path class="cls-1" d="M27.5,20.36s0,0,.05,0h2.31l.13-.84H27.14a.46.46,0,0,0-.48.38l-.22,1.4a.28.28,0,0,0,.27.3h2a0,0,0,0,1,0,.06l0,.3a.07.07,0,0,1-.06,0h-2.3l-.14.83h2.93a.37.37,0,0,0,.39-.29L29.75,21a.27.27,0,0,0-.29-.31h-2a.06.06,0,0,1-.05-.06l.05-.31Z"/><path class="cls-1" d="M2.49,31a2.43,2.43,0,0,0,1.59-.54A2.24,2.24,0,0,0,4.88,29,1.45,1.45,0,0,0,4.71,28a1.46,1.46,0,0,0-1-.48,1.49,1.49,0,0,0,1.5-1.39,1.58,1.58,0,0,0-.36-1.41,2.26,2.26,0,0,0-1.71-.54H1L-.1,31ZM2.2,28.2h.14a.73.73,0,0,1,.54.18.53.53,0,0,1,.13.49.76.76,0,0,1-.29.5.92.92,0,0,1-.58.19H2L2.2,28.2Zm.41-2.62H2.8c.44,0,.63.2.56.59a.63.63,0,0,1-.26.44.94.94,0,0,1-.55.15H2.43l.18-1.17Zm7.48-.5a1.87,1.87,0,0,0-1.74-.94,2.72,2.72,0,0,0-1.79.69,4.23,4.23,0,0,0-1.37,2.69,3.36,3.36,0,0,0,.47,2.76A2,2,0,0,0,7.28,31a2.62,2.62,0,0,0,2-.94,4.66,4.66,0,0,0,1.11-2.47,3.7,3.7,0,0,0-.3-2.51Zm-2,3.81c-.16.31-.36.47-.58.47s-.35-.16-.42-.47a3.72,3.72,0,0,1,0-1.32,3.76,3.76,0,0,1,.4-1.31c.18-.31.38-.47.6-.47.43,0,.56.6.36,1.82a3.52,3.52,0,0,1-.39,1.28ZM12,31a3.18,3.18,0,0,0,2.28-.79,4.4,4.4,0,0,0,1.27-2.63,3.15,3.15,0,0,0-.58-2.7,2.55,2.55,0,0,0-2-.74h-1.6L10.28,31Zm.93-5.13H13a.63.63,0,0,1,.61.47,2.7,2.7,0,0,1,.05,1.3c-.18,1.11-.6,1.68-1.27,1.72l.55-3.49Zm5.49,2.23,2.22-4H18.73l-.5,1-.2.44-.28.65c0-.17,0-.34-.06-.53s-.05-.37-.08-.57l-.17-1H15.5l1.08,4L16.12,31H18l.46-2.9Zm3.86,1.26a.9.9,0,0,1-.48-.12.81.81,0,0,1-.31-.35,1.27,1.27,0,0,1-.14-.55,3.19,3.19,0,0,1,0-.74,2.75,2.75,0,0,1,.53-1.33,1.23,1.23,0,0,1,1-.48,1,1,0,0,1,.78.41l.3-1.9a2.74,2.74,0,0,0-.89-.16,3.25,3.25,0,0,0-2.35.95A4.31,4.31,0,0,0,19.5,27.6,3.19,3.19,0,0,0,20,30.19a2.2,2.2,0,0,0,1.81.81,3.59,3.59,0,0,0,1.14-.23l.4-1.86a1.68,1.68,0,0,1-1,.45Zm6.16-4.28a1.87,1.87,0,0,0-1.74-.94,2.72,2.72,0,0,0-1.79.69,4.23,4.23,0,0,0-1.37,2.69A3.36,3.36,0,0,0,24,30.28a2,2,0,0,0,1.62.72,2.66,2.66,0,0,0,2-.94,4.73,4.73,0,0,0,1.1-2.47,3.7,3.7,0,0,0-.3-2.51Zm-2,3.81c-.16.31-.36.47-.58.47s-.35-.16-.42-.47a3.72,3.72,0,0,1,0-1.32,3.76,3.76,0,0,1,.4-1.31c.18-.31.38-.47.6-.47.43,0,.56.6.36,1.82a3.52,3.52,0,0,1-.39,1.28Zm9.26-4.75H33.45l-.85,2.49a10.92,10.92,0,0,0-.34,1.16c0-.26,0-.5,0-.72s0-.43,0-.62l0-2.31H30L28.1,31h2l.66-3.11L31,26.63c0,.2,0,.33,0,.39,0,.44,0,.74,0,.92V31h1.54l1.09-3.06c.07-.2.14-.41.2-.63l.18-.68-.14,1.24L33.39,31h1.88l.42-6.86ZM38.2,31a2.38,2.38,0,0,0,1.58-.54,2.2,2.2,0,0,0,.8-1.42A1.36,1.36,0,0,0,40.41,28a1.43,1.43,0,0,0-1-.48,1.5,1.5,0,0,0,1.5-1.39,1.59,1.59,0,0,0-.37-1.41,2.24,2.24,0,0,0-1.7-.54H36.69L35.61,31Zm-.3-2.8h.15a.73.73,0,0,1,.54.18.53.53,0,0,1,.13.49.8.8,0,0,1-.29.5.94.94,0,0,1-.58.19h-.16l.21-1.35Zm.42-2.62h.19c.44,0,.62.2.56.59a.67.67,0,0,1-.26.44,1,1,0,0,1-.55.15h-.13l.19-1.17Zm6.88-1.44H42.93L40.2,31h1.91l.29-.87h1.25V31h1.92l-.37-6.86Zm-2.32,4.55.36-1.08.26-.83s0-.06,0-.13l.1-.38c0-.09,0-.18.07-.25a1.15,1.15,0,0,0,.06-.21l0,.65c0,.13,0,.24,0,.33s0,.15,0,.2c0,.45,0,.71,0,.78v.92Zm5.9-2.9h1.06l.26-1.65H46.16l-.26,1.65h1L46.1,31H48l.83-5.21Z"/></svg>