<svg id="Capa_1" data-name="Capa 1" xmlns="http://www.w3.org/2000/svg" viewBox="0 0 50 50"><defs><style>.cls-1{fill:#fff;}</style></defs><path class="cls-1" d="M2.38,23.26A7.21,7.21,0,0,1,7,22.05a7.61,7.61,0,0,1,4.42,1.07A4.12,4.12,0,0,1,13,26.46H9.35a1.4,1.4,0,0,0-.67-1A3.35,3.35,0,0,0,7,25.09a2.86,2.86,0,0,0-2,.51A1.88,1.88,0,0,0,4.5,27,2,2,0,0,0,5,28.44,2.84,2.84,0,0,0,7,29a3.35,3.35,0,0,0,1.69-.35,1.36,1.36,0,0,0,.67-1H13a4.18,4.18,0,0,1-1.6,3.36A7.58,7.58,0,0,1,7,32a7.19,7.19,0,0,1-4.61-1.21A4.66,4.66,0,0,1,.92,27,4.62,4.62,0,0,1,2.38,23.26Z"/><path class="cls-1" d="M15.24,30.79A4.64,4.64,0,0,1,13.78,27a4.56,4.56,0,0,1,1.46-3.74,7.16,7.16,0,0,1,4.61-1.22,7.14,7.14,0,0,1,4.61,1.22A4.58,4.58,0,0,1,25.93,27a4.53,4.53,0,0,1-1.47,3.75A7.08,7.08,0,0,1,19.85,32,7.19,7.19,0,0,1,15.24,30.79Zm6.58-2.35A2,2,0,0,0,22.34,27a1.91,1.91,0,0,0-.52-1.41,2.84,2.84,0,0,0-2-.51,2.87,2.87,0,0,0-2,.51,2.2,2.2,0,0,0,0,2.84,2.79,2.79,0,0,0,2,.52A2.83,2.83,0,0,0,21.82,28.44Z"/><path class="cls-1" d="M37.53,27.78a3.36,3.36,0,0,1-1.25,1.31L38,31.86H33.74L32.4,29.6H30.29v2.26H26.7V22.2h7.59a3.79,3.79,0,0,1,1.91.48A3.39,3.39,0,0,1,37.52,24a4,4,0,0,1,.47,1.9A3.81,3.81,0,0,1,37.53,27.78Zm-7.24-1.22H33.6a1.12,1.12,0,0,0,.58-.12c.14-.07.21-.25.21-.55s-.07-.47-.21-.55a1.3,1.3,0,0,0-.58-.11H30.29Z"/><path class="cls-1" d="M42.45,25v.9h6.63v2.35H42.45v.89h6.63v2.76H38.86V22.2H49.08V25Z"/><path class="cls-1" d="M2.12,20,2.42,18H1.74l-.36,2.31a.29.29,0,0,0,.28.31H3.82L3.91,20H2.19s-.07,0-.07-.08Z"/><path class="cls-1" d="M14.27,20l.24-1.64h-.64l-.3,2.05a.23.23,0,0,0,.24.24h1.88l.09-.58H14.35a.09.09,0,0,1-.08-.07Z"/><path class="cls-1" d="M16.71,20l.23-1.64H16.3L16,20.38a.25.25,0,0,0,.25.24h1.87L18.2,20H16.77s-.06-.05-.06-.07Z"/><polygon class="cls-1" points="12.94 18.33 12.58 20.62 13.25 20.62 13.61 18.33 12.94 18.33"/><path class="cls-1" d="M11.66,18a.16.16,0,0,0-.15.09S11,19.38,11,19.39s0,0,0,0a0,0,0,0,1,0,0s-.14-1.28-.14-1.28a.12.12,0,0,0-.12-.1h-1L9.3,20.63H10l.25-1.71.23,1.57a.16.16,0,0,0,.16.15H11a.15.15,0,0,0,.15-.11l.76-1.6-.26,1.71h.71L12.74,18s-1,0-1.08,0Z"/><path class="cls-1" d="M4.88,19.8s0,0,0,0H6.38c.14,0,.24-.07.28-.27l.15-.95a.19.19,0,0,0-.2-.22H4.74a.35.35,0,0,0-.32.32l-.27,1.71a.22.22,0,0,0,.22.27H6.48L6.57,20H4.88s0,0,0,0l0-.21Zm.1-.65,0-.22s0,0,0,0h1a0,0,0,0,1,0,0l0,.21a0,0,0,0,1,0,0H5a0,0,0,0,1,0,0Z"/><path class="cls-1" d="M7.65,18.93s0,0,0,0h1.6l.09-.58h-2a.31.31,0,0,0-.33.26l-.15,1a.18.18,0,0,0,.19.2H8.48a0,0,0,0,1,0,0l0,.22s0,0,0,0H6.85l-.09.58h2a.26.26,0,0,0,.27-.21l.15-1A.18.18,0,0,0,9,19.19H7.65a0,0,0,0,1,0,0l0-.22Z"/><path class="cls-1" d="M19.29,18.93s0,0,0,0h1.6l.08-.58h-2a.31.31,0,0,0-.33.26l-.16,1a.19.19,0,0,0,.19.2h1.37a0,0,0,0,1,0,0l0,.22s0,0,0,0H18.49l-.09.58h2a.26.26,0,0,0,.27-.21l.16-1a.19.19,0,0,0-.21-.21H19.28a0,0,0,0,1,0,0l.05-.21Z"/></svg>