<svg id="Capa_1" data-name="Capa 1" xmlns="http://www.w3.org/2000/svg" viewBox="0 0 50 50"><defs><style>.cls-1{fill:#fff;}</style></defs><path class="cls-1" d="M7.64,20.72V28H6V20.72Z"/><path class="cls-1" d="M10,20.72l3.05,4.9h0v-4.9h1.5V28H13l-3-4.9h0V28H8.44V20.72Z"/><path class="cls-1" d="M18.56,20.72a3.81,3.81,0,0,1,1.32.22,2.84,2.84,0,0,1,1.05.68,3.1,3.1,0,0,1,.7,1.12,4.5,4.5,0,0,1,.25,1.59,4.93,4.93,0,0,1-.21,1.47A3.18,3.18,0,0,1,21.06,27a2.86,2.86,0,0,1-1,.77,3.46,3.46,0,0,1-1.46.29H15.41V20.72Zm-.11,6a2,2,0,0,0,.68-.11,1.51,1.51,0,0,0,.58-.37,1.9,1.9,0,0,0,.41-.68,3.07,3.07,0,0,0,.15-1,3.8,3.8,0,0,0-.11-1,1.94,1.94,0,0,0-.35-.77,1.52,1.52,0,0,0-.65-.48,2.64,2.64,0,0,0-1-.17H17v4.6Z"/><path class="cls-1" d="M41.81,20.72a2.31,2.31,0,0,1,.89.16,2,2,0,0,1,.67.43,2,2,0,0,1,.43.64,2,2,0,0,1,.15.78,2.21,2.21,0,0,1-.27,1.12,1.76,1.76,0,0,1-.89.72v0a1.24,1.24,0,0,1,.5.25,1.38,1.38,0,0,1,.31.4,2,2,0,0,1,.18.5,5.39,5.39,0,0,1,.08.56c0,.11,0,.25,0,.41s0,.31,0,.48a3.12,3.12,0,0,0,.09.46.94.94,0,0,0,.17.38H42.56a3.2,3.2,0,0,1-.17-.83c0-.32,0-.63-.09-.92a1.37,1.37,0,0,0-.35-.84,1.16,1.16,0,0,0-.87-.27h-1.6V28H37.87V20.72ZM41.24,24a1.25,1.25,0,0,0,.83-.24,1,1,0,0,0,.27-.8,1,1,0,0,0-.27-.77,1.25,1.25,0,0,0-.83-.24H39.48V24Z"/><path class="cls-1" d="M9.12,30.48a1.4,1.4,0,0,0-.36-.41,1.87,1.87,0,0,0-.48-.27,1.79,1.79,0,0,0-.57-.09,1.87,1.87,0,0,0-.92.21,1.75,1.75,0,0,0-.62.56,2.51,2.51,0,0,0-.34.8,4.08,4.08,0,0,0-.11.93,3.82,3.82,0,0,0,.11.9,2.5,2.5,0,0,0,.34.78,1.76,1.76,0,0,0,1.54.77,1.49,1.49,0,0,0,1.15-.45A2.06,2.06,0,0,0,9.37,33h1.55a3.7,3.7,0,0,1-.31,1.24,3.11,3.11,0,0,1-.68.94,3,3,0,0,1-1,.6,3.79,3.79,0,0,1-1.24.2,3.84,3.84,0,0,1-1.51-.29,3.2,3.2,0,0,1-1.13-.81,3.6,3.6,0,0,1-.71-1.2,4.48,4.48,0,0,1-.24-1.49,4.7,4.7,0,0,1,.24-1.52,3.8,3.8,0,0,1,.71-1.22,3.23,3.23,0,0,1,1.13-.82,3.67,3.67,0,0,1,1.51-.3,3.58,3.58,0,0,1,1.14.18,2.77,2.77,0,0,1,1,.51,2.53,2.53,0,0,1,.7.82A2.88,2.88,0,0,1,10.86,31H9.31A1.26,1.26,0,0,0,9.12,30.48Z"/><path class="cls-1" d="M10.62,28.53h1.8l1.71,2.88,1.69-2.88h1.8L14.9,33v2.81H13.3V33Z"/><path class="cls-1" d="M22.3,30.48a1.53,1.53,0,0,0-.35-.41,2.12,2.12,0,0,0-.49-.27,1.79,1.79,0,0,0-.57-.09,1.87,1.87,0,0,0-.92.21,1.64,1.64,0,0,0-.61.56,2.32,2.32,0,0,0-.35.8,4.08,4.08,0,0,0-.1.93,3.82,3.82,0,0,0,.1.9,2.3,2.3,0,0,0,.35.78,1.73,1.73,0,0,0,.61.56,1.87,1.87,0,0,0,.92.21A1.48,1.48,0,0,0,22,34.21,2.06,2.06,0,0,0,22.55,33H24.1a3.7,3.7,0,0,1-.31,1.24,2.94,2.94,0,0,1-1.66,1.54,3.79,3.79,0,0,1-1.24.2,3.84,3.84,0,0,1-1.51-.29,3.2,3.2,0,0,1-1.13-.81,3.6,3.6,0,0,1-.71-1.2,4.48,4.48,0,0,1-.24-1.49,4.7,4.7,0,0,1,.24-1.52,3.8,3.8,0,0,1,.71-1.22,3.23,3.23,0,0,1,1.13-.82,3.67,3.67,0,0,1,1.51-.3,3.58,3.58,0,0,1,1.14.18A2.77,2.77,0,0,1,23,29a2.68,2.68,0,0,1,.71.82A2.88,2.88,0,0,1,24,31H22.49A1.26,1.26,0,0,0,22.3,30.48Z"/><path class="cls-1" d="M26.19,28.53v6h3.56v1.35H24.59V28.53Z"/><path class="cls-1" d="M31.65,28.53v7.31H30V28.53Z"/><path class="cls-1" d="M34,28.53l3.05,4.9h0v-4.9h1.51v7.31H37l-3-4.9h0v4.9h-1.5V28.53Z"/><path class="cls-1" d="M43.74,35.78a2.6,2.6,0,0,1-1.05.22,3.84,3.84,0,0,1-1.51-.29,3.2,3.2,0,0,1-1.13-.81,3.6,3.6,0,0,1-.71-1.2,4.48,4.48,0,0,1-.24-1.49,4.7,4.7,0,0,1,.24-1.52,3.8,3.8,0,0,1,.71-1.22,3.23,3.23,0,0,1,1.13-.82,3.79,3.79,0,0,1,2.6-.13,3.19,3.19,0,0,1,.95.5,2.73,2.73,0,0,1,.7.81,2.63,2.63,0,0,1,.34,1.1H44.24a1.54,1.54,0,0,0-.56-.92,1.62,1.62,0,0,0-1-.3,1.87,1.87,0,0,0-.92.21,1.75,1.75,0,0,0-.62.56,2.51,2.51,0,0,0-.34.8,4.08,4.08,0,0,0-.11.93,3.82,3.82,0,0,0,.11.9,2.5,2.5,0,0,0,.34.78,1.76,1.76,0,0,0,1.54.77,1.58,1.58,0,0,0,1.74-1.58H42.81V31.89h3.07v4h-1L44.7,35A2.45,2.45,0,0,1,43.74,35.78Z"/><path class="cls-1" d="M37.67,24.09A4.44,4.44,0,0,0,37,22a4.36,4.36,0,0,0-1.6-1.45,4.2,4.2,0,0,0-2.05-.5A4.17,4.17,0,0,0,29.86,22,4.13,4.13,0,0,0,28,20.25,4.07,4.07,0,0,0,25.29,20,4.2,4.2,0,0,0,23,21.48a4.33,4.33,0,0,0-.06,5.26,4.41,4.41,0,0,0,5.16,1.44,4.49,4.49,0,0,0,1.75-1.27A4.5,4.5,0,0,0,31.06,28a4.3,4.3,0,0,0,2.26.62,4.32,4.32,0,0,0,3.85-2.3A4.21,4.21,0,0,0,37.67,24.09Zm-.67,0a3.79,3.79,0,0,1-.58,1.78,3.65,3.65,0,0,1-3.1,1.7,3.54,3.54,0,0,1-1.74-.46,3.62,3.62,0,0,1-1.31-1.27v0a.58.58,0,0,0-.18-.17.47.47,0,0,0-.63.19,3.59,3.59,0,0,1-6,.47,3.63,3.63,0,0,1-.8-2.22,3.75,3.75,0,0,1,2.72-3.65,3.88,3.88,0,0,1,2.45.09,3.93,3.93,0,0,1,1.93,1.6h0l0,0a.07.07,0,0,0,.1,0,3.88,3.88,0,0,1,1.43-1.47,3.76,3.76,0,0,1,3.93.05,3.67,3.67,0,0,1,1.34,1.48A3.61,3.61,0,0,1,37,24.09Z"/><path class="cls-1" d="M31.49,14.63c-1,.56-1.93,1.1-2.9,1.65s-1.94,1.08-2.91,1.61l.09-.05a.44.44,0,0,0-.11.18s0,0,0,0h0a.67.67,0,0,0,.19.09l.32.06.35,0,.41,0,.8.08c.53.07,1.06.16,1.58.28a14.24,14.24,0,0,1,1.53.48h0a.47.47,0,0,1,.31.46v.17l0,.09a.52.52,0,0,1-.07.15,2,2,0,0,1-.14.25c-.1.14-.21.27-.31.39a6,6,0,0,1-.7.64c-.25.19-.47.35-.7.54l-.67.57L27.22,23.5l-1.33,1.16a.06.06,0,0,1-.07,0s0,0,0-.06c.73-.93,1.51-1.82,2.31-2.69l.62-.64c.21-.21.44-.42.63-.62a5.06,5.06,0,0,0,.53-.63,2.82,2.82,0,0,0,.21-.31.47.47,0,0,0,.06-.15.17.17,0,0,0,0-.05v0h0v0l.33.47-1.46-.42c-.49-.14-1-.28-1.47-.39l-.74-.14-.37,0a3,3,0,0,1-.42-.06,2.36,2.36,0,0,1-.44-.11,1.26,1.26,0,0,1-.48-.31.72.72,0,0,1-.15-.7.9.9,0,0,1,.13-.26.83.83,0,0,1,.17-.21h0l.07-.05c1-.47,2-.94,3-1.39l3-1.37a.05.05,0,0,1,.07,0A0,0,0,0,1,31.49,14.63Z"/><path class="cls-1" d="M32.76,14.09A4.22,4.22,0,0,1,33.89,14a2.25,2.25,0,0,1,.6.11,1.27,1.27,0,0,1,.61.41,1.12,1.12,0,0,1,.2.41,1.4,1.4,0,0,1,0,.45A1.27,1.27,0,0,1,35,16a2,2,0,0,1-.5.38,1.54,1.54,0,0,1-.61.17.06.06,0,0,1-.07-.06h0c.84-.76-.74-2.25-1.09-2.33h0a0,0,0,0,1,0-.06S32.74,14.1,32.76,14.09Z"/><path class="cls-1" d="M31.93,15.61a2.34,2.34,0,0,0,2.5,2.83c.54.07,1.09.14,1.64.26,0,0,0,0,0,0s0,0,0,0a8.56,8.56,0,0,1-1.67.1,7.72,7.72,0,0,1-.83-.06l-.41-.06a2.36,2.36,0,0,1-.43-.09,1.34,1.34,0,0,1-.73-.54,1.86,1.86,0,0,1-.28-.83,4.4,4.4,0,0,1,.17-1.66l0,0a0,0,0,0,1,0,0Z"/></svg>