<svg id="Capa_1" data-name="Capa 1" xmlns="http://www.w3.org/2000/svg" viewBox="0 0 50 50"><defs><style>.cls-1{fill:#fff;}</style></defs><path class="cls-1" d="M10.79,15v6.4h3.83v1.45H9.06V15Z"/><path class="cls-1" d="M18.84,15l2.94,7.85H20l-.6-1.74H16.46l-.62,1.74H14.1l3-7.85Zm.1,4.82L18,17h0l-1,2.88Z"/><path class="cls-1" d="M20.17,16.47V15h6.44v1.45H24.26v6.4H22.53v-6.4Z"/><path class="cls-1" d="M28.58,15v7.85H26.85V15Z"/><path class="cls-1" d="M31.15,15l3.28,5.27h0V15h1.62v7.85H34.34l-3.26-5.25h0v5.25H29.44V15Z"/><path class="cls-1" d="M12.61,23.32l2.73,8h0l2.58-8h3.61V35h-2.4V26.71h0L16.27,35h-2L11.43,26.8h0V35H9V23.32Z"/><path class="cls-1" d="M25.4,23.32V35H22.84V23.32Z"/><path class="cls-1" d="M25.78,23.32h3L31,27l2.37-3.72h2.81l-3.74,5.57L36.54,35h-3l-2.55-4-2.6,4H25.47l4.06-6.11Z"/><polygon class="cls-1" points="37.2 34.45 37.2 23.35 33.48 28.89 37.2 34.45"/><rect class="cls-1" x="37.99" y="23.38" width="1.15" height="11.05"/><rect class="cls-1" x="39.85" y="23.38" width="1.15" height="11.05"/></svg>