<svg id="Capa_1" data-name="Capa 1" xmlns="http://www.w3.org/2000/svg" viewBox="0 0 58.34 58.34"><defs><style>.cls-1{fill:#fff;}</style></defs><path class="cls-1" d="M3.89,34.79c.14-.16.29-.32.42-.48s.27-.33.4-.5l.35-.52,0-.07v-.06c0-.18,0-.37,0-.56s0-.39,0-.58A1.93,1.93,0,0,1,5.54,31a3.76,3.76,0,0,1,.38-.41A1.39,1.39,0,0,0,6.26,30a1.05,1.05,0,0,0,0-.68,1,1,0,0,0-.42-.48l0,0a1.31,1.31,0,0,1,.16.51.92.92,0,0,1-.08.47,2.53,2.53,0,0,1-.26.44,1.68,1.68,0,0,0-.28.55c-.14.39-.27.75-.42,1.13-.07.19-.14.38-.19.57a4.34,4.34,0,0,0-.08.52,5.19,5.19,0,0,0-.36.46c-.12.17-.23.35-.34.53s-.21.37-.31.56a4.41,4.41,0,0,0-.26.59l0,0C3.58,35.09,3.74,34.94,3.89,34.79Z"/><path class="cls-1" d="M11,33.92c.05-.07.11-.14.15-.21l.12-.2.23-.37.47-.75,1-1.49c.4-.33.8-.67,1.18-1l0,0c-.47.26-.93.55-1.38.83h0l0,0c-.39.46-.75.93-1.1,1.42q-.27.36-.51.75c-.08.13-.16.26-.23.39l-.11.19a1.4,1.4,0,0,1-.1.16A1.09,1.09,0,0,1,10,34a.5.5,0,0,1-.3,0,.53.53,0,0,1-.24-.23,1.6,1.6,0,0,1-.17-.78,1.48,1.48,0,0,1,0-.21v-.22a3.55,3.55,0,0,0,0-.46,3.38,3.38,0,0,0,0-.45,1.45,1.45,0,0,0-.09-.46.92.92,0,0,0-.27-.4,2.94,2.94,0,0,0-.39-.26l-.38-.23A2.41,2.41,0,0,1,7.84,30a.71.71,0,0,1-.23-.27.25.25,0,0,1,0-.24,1.18,1.18,0,0,1,.25-.25c.11-.08.23-.15.35-.22l.19-.1.21-.11A.79.79,0,0,0,9,28.38a1,1,0,0,0,0-.54,1.56,1.56,0,0,0-.21-.43,2.69,2.69,0,0,0-.6-.7l0,0a5.7,5.7,0,0,1,.43.76,2.19,2.19,0,0,1,.11.4.58.58,0,0,1,0,.35.47.47,0,0,1-.23.21l-.2.08-.21.1a3,3,0,0,0-.41.25,1.24,1.24,0,0,0-.36.39.62.62,0,0,0-.08.31.65.65,0,0,0,.08.31,1.16,1.16,0,0,0,.38.36,5.33,5.33,0,0,0,.84.4,1.65,1.65,0,0,1,.37.2.66.66,0,0,1,.25.32,1.86,1.86,0,0,1,.05.85,3.35,3.35,0,0,1-.07.44l0,.22a1.57,1.57,0,0,0,0,.23,1.83,1.83,0,0,0,.11,1,.91.91,0,0,0,.37.41.92.92,0,0,0,.56.12A1.54,1.54,0,0,0,11,33.92Z"/><path class="cls-1" d="M18.87,25a2,2,0,0,0,.41-.93,1.32,1.32,0,0,0,0-.56,1.43,1.43,0,0,0-.09-.27.75.75,0,0,0-.07-.12L19,23l-.15-.18-.16.15a2.73,2.73,0,0,0-.28.33l-.22.33-.39.69q-.19.33-.42.66c-.15.21-.31.42-.48.62a7.31,7.31,0,0,0-.48.62,7.48,7.48,0,0,0-.41.67,8.79,8.79,0,0,0-.67,1.42l0,0a12.46,12.46,0,0,0,1-1.23c.14-.22.29-.43.42-.66s.24-.46.36-.69a5.7,5.7,0,0,1,.37-.69c.14-.22.29-.43.45-.64l.51-.59.26-.28,0-.05,0,.12a1,1,0,0,1,0,.38,2,2,0,0,1-.32.77l0,0v0a2.08,2.08,0,0,0-.07.55,1.72,1.72,0,0,0,.06.55,2.18,2.18,0,0,0,.11.27.4.4,0,0,1,.07.16s0,0,0,0l-.1,0a1,1,0,0,1-.24,0l0,.05a.73.73,0,0,0,.26.09.25.25,0,0,0,.15,0,.21.21,0,0,0,.16-.13.31.31,0,0,0,0-.19.17.17,0,0,0,0-.07.64.64,0,0,0,0-.07,2.07,2.07,0,0,1,0-.22,2.26,2.26,0,0,1,0-.45A2.75,2.75,0,0,1,18.87,25Z"/><path class="cls-1" d="M17.16,27.44a8.78,8.78,0,0,1-1.28,2.86A7.76,7.76,0,0,1,15,31.59a6.1,6.1,0,0,1-.59.55l-.15.16-.13.16-.24.34a5.07,5.07,0,0,0-.4.72,7.28,7.28,0,0,0-.31.77c-.09.26-.16.52-.23.79a2.59,2.59,0,0,0-.09.4,1.29,1.29,0,0,0,0,.19c0,.06,0,.12,0,.18A2.26,2.26,0,0,1,12,37.1a2.16,2.16,0,0,1-1.42.45v0a1.94,1.94,0,0,0,1.65-.19,2.26,2.26,0,0,0,.35-.28,3.17,3.17,0,0,0,.28-.34,3.11,3.11,0,0,0,.36-.79,1.6,1.6,0,0,0,0-.21,1.55,1.55,0,0,0,0-.21l.08-.38c0-.26.11-.52.18-.77s.14-.51.23-.76a6.61,6.61,0,0,1,.28-.74,3.91,3.91,0,0,1,.18-.35l.1-.16.12-.15.58-.56a10.7,10.7,0,0,0,1.15-1.18,4.49,4.49,0,0,0,.44-.69,7.35,7.35,0,0,0,.34-.76l.12-.4c0-.13.06-.27.08-.41a2.82,2.82,0,0,0,0-.82Z"/><path class="cls-1" d="M8.81,36.56a14,14,0,0,1-.87-1.16,12.05,12.05,0,0,1-.72-1.26c-.1-.22-.2-.44-.29-.67a5.49,5.49,0,0,1-.24-.68l0-.09-.06,0a1,1,0,0,0-.15.13L6.34,33c-.09.09-.16.18-.24.27l-.45.55c-.3.36-.59.74-.89,1.09L3.85,36,2.92,37v0a9.48,9.48,0,0,0,1-.95A10.59,10.59,0,0,0,4.91,35c.29-.38.52-.79.8-1.16.14-.19.29-.37.45-.55l.24-.25L6.53,33a.18.18,0,0,1,.07-.05A6.85,6.85,0,0,0,7,34.23a8.3,8.3,0,0,0,.71,1.31,8.14,8.14,0,0,0,2.08,2.1v0C9.47,37.28,9.13,36.93,8.81,36.56Z"/><path class="cls-1" d="M2.23,36.5a6.51,6.51,0,0,1-.64.43,3.13,3.13,0,0,1-.72.27,1.44,1.44,0,0,1-.77,0l-.09,0,.06.08a1.16,1.16,0,0,0,.28.26,1.06,1.06,0,0,0,.35.18,1.19,1.19,0,0,0,.37.06,1.2,1.2,0,0,0,.38-.05h0a1.73,1.73,0,0,1-.72-.1,1.59,1.59,0,0,1-.32-.16l-.22-.16a2.66,2.66,0,0,0,.69,0A2.3,2.3,0,0,0,1.64,37a2.66,2.66,0,0,0,.66-.45,3.68,3.68,0,0,0,.51-.6h0A7,7,0,0,1,2.23,36.5Z"/><path class="cls-1" d="M23.69,25.73a5.23,5.23,0,0,0,.09-2,4.92,4.92,0,0,0-2.06-3.31A5.34,5.34,0,0,0,18,19.49a6.09,6.09,0,0,0-1,.22,4.5,4.5,0,0,0-.91.38,5,5,0,0,0-1.52,1.28,4.65,4.65,0,0,0-.93,3.78,5.07,5.07,0,0,0,.67,1.73l.12-.05a4.79,4.79,0,0,1-.5-1.72,5.26,5.26,0,0,1,.95-3.51,4.81,4.81,0,0,1,1.34-1.28,4.76,4.76,0,0,1,.84-.43,4.3,4.3,0,0,1,.92-.24,4.64,4.64,0,0,1,1.89.1,4.79,4.79,0,0,1,3.44,4,4.81,4.81,0,0,1-.92,3.46,5,5,0,0,1-3.07,1.91,5.51,5.51,0,0,1-.71.08,1.87,1.87,0,0,1-.07.22h0a5.89,5.89,0,0,0,.84,0,4.79,4.79,0,0,0,1.9-.59,5.1,5.1,0,0,0,1.52-1.33A4.94,4.94,0,0,0,23.69,25.73Z"/><path class="cls-1" d="M22.36,35a3.24,3.24,0,0,1-2.11.61H18.5v3H16.75v-8.4h3.61a2.88,2.88,0,0,1,2,.65,2.51,2.51,0,0,1,.74,2A2.63,2.63,0,0,1,22.36,35ZM21,32a1.42,1.42,0,0,0-.94-.28H18.5V34.2h1.58a1.38,1.38,0,0,0,.94-.3,1.24,1.24,0,0,0,.33-1A1.15,1.15,0,0,0,21,32Z"/><path class="cls-1" d="M25.17,38.67H23.43v-8.4h1.74Z"/><path class="cls-1" d="M25.88,30.27h1.76v6.89h4.19v1.51H25.88Z"/><path class="cls-1" d="M34.48,30.27h2l3,8.4h-1.9L37,37h-3.1l-.57,1.72H31.48Zm-.11,5.23h2.15l-1.06-3.31Z"/><path class="cls-1" d="M44.83,30.27v1.49H42.31v6.91H40.54V31.76H38V30.27Z"/><path class="cls-1" d="M51.13,31.76H46.69v1.78h4.08V35H46.69v2.16h4.65v1.51H45v-8.4h6.16Z"/><path class="cls-1" d="M53,36.08a1.67,1.67,0,0,0,.32.86,1.85,1.85,0,0,0,1.5.52,3.28,3.28,0,0,0,1-.14,1,1,0,0,0,.75-1,.71.71,0,0,0-.37-.65,3.84,3.84,0,0,0-1.17-.39l-.91-.2a5.76,5.76,0,0,1-1.84-.64,2.05,2.05,0,0,1-.85-1.82,2.43,2.43,0,0,1,.83-1.88A3.55,3.55,0,0,1,54.77,30a3.77,3.77,0,0,1,2.3.71,2.5,2.5,0,0,1,1,2H56.38a1.24,1.24,0,0,0-.68-1.08,2.34,2.34,0,0,0-1.05-.21,1.94,1.94,0,0,0-1.11.28.84.84,0,0,0-.41.76.71.71,0,0,0,.4.67,4.94,4.94,0,0,0,1.12.35l1.48.35a3.65,3.65,0,0,1,1.45.61,2.06,2.06,0,0,1,.75,1.72,2.4,2.4,0,0,1-.89,1.91,3.73,3.73,0,0,1-2.51.76,4.14,4.14,0,0,1-2.62-.75,2.49,2.49,0,0,1-1-2.06Z"/></svg>