<svg id="Capa_1" data-name="Capa 1" xmlns="http://www.w3.org/2000/svg" viewBox="0 0 58.34 58.34"><defs><style>.cls-1{fill:#fff;}</style></defs><path class="cls-1" d="M24.88,25a2.74,2.74,0,0,1,1.05.18,2,2,0,0,1,.7.47,1.94,1.94,0,0,1,.4.68,2.54,2.54,0,0,1,.12.78,2.64,2.64,0,0,1-.12.78A1.9,1.9,0,0,1,25.93,29a2.74,2.74,0,0,1-1.05.18H23.36v2.35H21.91V25Zm-.4,3.09a3.64,3.64,0,0,0,.48,0,1.34,1.34,0,0,0,.41-.15.81.81,0,0,0,.28-.3,1,1,0,0,0,.1-.5,1.08,1.08,0,0,0-.1-.51.81.81,0,0,0-.28-.3,1.11,1.11,0,0,0-.41-.14,3.58,3.58,0,0,0-.48,0H23.36v2Z"/><path class="cls-1" d="M26.7,25h1.62l1.54,2.6L31.39,25H33l-2.44,4.05v2.52H29.11V29Z"/><path class="cls-1" d="M34.35,25v5.36h3.2v1.21H32.91V25Z"/><path class="cls-1" d="M41,25l2.45,6.57H42l-.49-1.46H39l-.52,1.46H37L39.51,25Zm.08,4-.83-2.41h0L39.38,29Z"/><path class="cls-1" d="M42,26.22V25H47.4v1.22h-2v5.35H44V26.22Z"/><path class="cls-1" d="M52.43,25v1.22H49v1.4h3.18v1.13H49v1.61H52.5v1.21h-5V25Z"/><path class="cls-1" d="M53.94,30a1,1,0,0,0,.32.38,1.5,1.5,0,0,0,.46.21,2.51,2.51,0,0,0,.55.07,2.12,2.12,0,0,0,.42,0,1.39,1.39,0,0,0,.41-.12.89.89,0,0,0,.32-.25.63.63,0,0,0,.13-.41.57.57,0,0,0-.17-.44,1.27,1.27,0,0,0-.44-.27,4.67,4.67,0,0,0-.63-.2l-.71-.18c-.24-.06-.48-.14-.72-.22a2.49,2.49,0,0,1-.62-.35,1.54,1.54,0,0,1-.45-.53,1.85,1.85,0,0,1,0-1.65,2,2,0,0,1,.56-.62,2.67,2.67,0,0,1,.8-.37,3.28,3.28,0,0,1,.88-.12,4.07,4.07,0,0,1,1,.12,2.56,2.56,0,0,1,.84.37,1.88,1.88,0,0,1,.59.66,2.07,2.07,0,0,1,.21,1h-1.4a1.14,1.14,0,0,0-.12-.49.81.81,0,0,0-.28-.3,1.29,1.29,0,0,0-.4-.16,2.6,2.6,0,0,0-.5,0l-.35,0a1.07,1.07,0,0,0-.31.13.76.76,0,0,0-.24.23.63.63,0,0,0-.09.35.61.61,0,0,0,.07.32.71.71,0,0,0,.29.22,6,6,0,0,0,.6.2l1,.26c.12,0,.29.07.51.13a2.27,2.27,0,0,1,.65.31,2,2,0,0,1,.56.56,1.68,1.68,0,0,1,.23.91,2.14,2.14,0,0,1-.17.84,1.87,1.87,0,0,1-.52.67,2.57,2.57,0,0,1-.86.43,3.83,3.83,0,0,1-1.18.16,4.22,4.22,0,0,1-1.06-.13,2.66,2.66,0,0,1-.9-.42,2.09,2.09,0,0,1-.62-.73,2.14,2.14,0,0,1-.22-1.05h1.4A1.19,1.19,0,0,0,53.94,30Z"/><path class="cls-1" d="M3.59,34.31a4.48,4.48,0,0,0,.36-.4,3.39,3.39,0,0,0,.33-.42c.11-.14.2-.29.3-.44l0-.06v-.05a3.73,3.73,0,0,1,0-.47c0-.16,0-.32,0-.49A1.67,1.67,0,0,1,5,31.09a2.13,2.13,0,0,1,.33-.34,1.18,1.18,0,0,0,.28-.47.89.89,0,0,0,0-.58.81.81,0,0,0-.35-.4l0,0a1.08,1.08,0,0,1,.14.43.77.77,0,0,1-.07.4,1.8,1.8,0,0,1-.22.37,2,2,0,0,0-.24.46c-.11.33-.22.63-.34,1a4.5,4.5,0,0,0-.16.48,3.11,3.11,0,0,0-.08.44c-.1.12-.2.25-.29.38s-.2.3-.29.45-.18.31-.26.47-.16.33-.23.5l0,0A4.59,4.59,0,0,0,3.59,34.31Z"/><path class="cls-1" d="M9.53,33.58l.13-.18.1-.16.2-.32.39-.63L11.16,31c.34-.28.68-.56,1-.86l0,0c-.4.22-.78.46-1.16.7h0l0,0c-.33.39-.64.78-.93,1.2-.15.2-.29.41-.43.63s-.13.21-.19.33l-.09.15-.09.14a.85.85,0,0,1-.5.32.57.57,0,0,1-.26,0,.53.53,0,0,1-.19-.2,1.23,1.23,0,0,1-.15-.65,1.09,1.09,0,0,1,0-.18v-.19l0-.38v-.38a1.36,1.36,0,0,0-.08-.39.79.79,0,0,0-.23-.33,1.72,1.72,0,0,0-.33-.22l-.32-.19c-.1-.07-.21-.14-.29-.21a.71.71,0,0,1-.2-.24.19.19,0,0,1,0-.19A.85.85,0,0,1,7,29.64a1.75,1.75,0,0,1,.29-.18l.16-.09.18-.09a.65.65,0,0,0,.31-.36.76.76,0,0,0,0-.45,1.14,1.14,0,0,0-.17-.37,2.79,2.79,0,0,0-.5-.58l0,0a4.53,4.53,0,0,1,.36.64,1.46,1.46,0,0,1,.1.34.47.47,0,0,1,0,.29.42.42,0,0,1-.19.18l-.16.07-.18.08a2.39,2.39,0,0,0-.34.21,1.06,1.06,0,0,0-.31.32.6.6,0,0,0-.07.27.59.59,0,0,0,.07.26,1,1,0,0,0,.32.3,4.88,4.88,0,0,0,.7.33,1.38,1.38,0,0,1,.32.17.56.56,0,0,1,.21.27A1.58,1.58,0,0,1,8,32a2.58,2.58,0,0,1-.06.37l0,.18a.69.69,0,0,0,0,.2,1.43,1.43,0,0,0,.09.81.7.7,0,0,0,.31.35.77.77,0,0,0,.47.1A1.27,1.27,0,0,0,9.53,33.58Z"/><path class="cls-1" d="M16.19,26.09a1.67,1.67,0,0,0,.35-.79,1.07,1.07,0,0,0,0-.47,1.43,1.43,0,0,0-.08-.22l-.06-.11-.07-.11-.13-.15-.13.13a1.46,1.46,0,0,0-.24.27l-.18.29c-.12.19-.22.38-.33.57a6.65,6.65,0,0,1-.36.56,6.54,6.54,0,0,1-.4.52,6.78,6.78,0,0,0-.75,1.08,8.78,8.78,0,0,0-.57,1.2l0,0a8.82,8.82,0,0,0,.81-1,6.49,6.49,0,0,0,.36-.55c.11-.19.21-.39.3-.58a5.39,5.39,0,0,1,.32-.58,4,4,0,0,1,.38-.54c.13-.17.28-.33.43-.5l.21-.23,0,0s0,.06,0,.09a1.22,1.22,0,0,1,0,.33,1.87,1.87,0,0,1-.27.64l0,0h0a2.67,2.67,0,0,0-.07.47,1.46,1.46,0,0,0,.06.46.73.73,0,0,0,.09.22.3.3,0,0,1,.06.14s0,0,0,0l-.08,0a1.33,1.33,0,0,1-.2,0l0,0a.6.6,0,0,0,.21.08.22.22,0,0,0,.14,0,.16.16,0,0,0,.13-.11.27.27,0,0,0,0-.15s0-.05,0-.07,0,0,0-.06a.57.57,0,0,1,0-.18,1.22,1.22,0,0,1,0-.38A2.84,2.84,0,0,1,16.19,26.09Z"/><path class="cls-1" d="M14.76,28.13a7.59,7.59,0,0,1-1.08,2.41,6.3,6.3,0,0,1-.78,1.08,3.56,3.56,0,0,1-.49.46l-.12.14-.11.13c-.07.1-.14.19-.2.29a4.48,4.48,0,0,0-.35.6c-.09.21-.18.43-.25.65s-.14.44-.2.66,0,.23-.07.34l0,.16a1.24,1.24,0,0,1,0,.16,2,2,0,0,1-.6,1,1.76,1.76,0,0,1-1.2.37v0a1.64,1.64,0,0,0,1.39-.16,1.73,1.73,0,0,0,.29-.23,2.17,2.17,0,0,0,.24-.29,2.51,2.51,0,0,0,.3-.67c0-.06,0-.12.05-.18l0-.17.07-.32c0-.22.09-.44.15-.65s.12-.43.19-.64a5.27,5.27,0,0,1,.24-.62,1.59,1.59,0,0,1,.15-.29.67.67,0,0,1,.09-.14l.09-.12.5-.48a10,10,0,0,0,1-1,3.82,3.82,0,0,0,.37-.58,4,4,0,0,0,.28-.64,3.37,3.37,0,0,0,.1-.34,1.86,1.86,0,0,0,.07-.34,2.28,2.28,0,0,0,0-.69Z"/><path class="cls-1" d="M7.74,35.8a9,9,0,0,1-.74-1,8.49,8.49,0,0,1-.6-1.06c-.09-.18-.17-.36-.25-.56A5.44,5.44,0,0,1,6,32.63l0-.07-.06,0-.12.1a1.14,1.14,0,0,1-.11.11L5.46,33c-.13.15-.26.3-.38.46s-.5.62-.76.92l-.76.9-.78.89h0a7.48,7.48,0,0,0,.89-.8,9.68,9.68,0,0,0,.78-.9c.24-.32.43-.67.67-1s.24-.31.37-.46l.21-.21a.52.52,0,0,1,.11-.1l0,0a5.42,5.42,0,0,0,.36,1.12,7.82,7.82,0,0,0,.6,1.1,6.7,6.7,0,0,0,1.75,1.77v0A8.94,8.94,0,0,1,7.74,35.8Z"/><path class="cls-1" d="M2.2,35.75a3.17,3.17,0,0,1-.54.36,2.48,2.48,0,0,1-.61.23,1.16,1.16,0,0,1-.64,0l-.08,0,.06.07a1.25,1.25,0,0,0,.23.23,1.11,1.11,0,0,0,.29.14,1.13,1.13,0,0,0,.32,0,.87.87,0,0,0,.32,0h0a1.51,1.51,0,0,1-.6-.09,1.13,1.13,0,0,1-.27-.13,1.33,1.33,0,0,1-.19-.14,2.81,2.81,0,0,0,.58,0,1.76,1.76,0,0,0,.64-.19,2.4,2.4,0,0,0,.56-.38,2.92,2.92,0,0,0,.43-.5h0A4.9,4.9,0,0,1,2.2,35.75Z"/><path class="cls-1" d="M20.25,26.69A4.19,4.19,0,0,0,20.32,25a4.12,4.12,0,0,0-1.72-2.78,4.6,4.6,0,0,0-4-.6,4.36,4.36,0,0,0-.77.33A4.11,4.11,0,0,0,12.6,23a4,4,0,0,0-.73,1.51,3.93,3.93,0,0,0,0,1.67,4.38,4.38,0,0,0,.56,1.46l.11,0a4,4,0,0,1-.42-1.45,4.35,4.35,0,0,1,.8-3A3.88,3.88,0,0,1,14,22.14a3.8,3.8,0,0,1,1.47-.57,3.87,3.87,0,0,1,3,.82A4.14,4.14,0,0,1,20,25.06,4,4,0,0,1,19.18,28a4.26,4.26,0,0,1-2.58,1.61,5.6,5.6,0,0,1-.59.07,1.34,1.34,0,0,1-.07.18h0a3.95,3.95,0,0,0,2.3-.5,4.41,4.41,0,0,0,1.28-1.11A4.21,4.21,0,0,0,20.25,26.69Z"/><path class="cls-1" d="M24.24,35.46l.8,1.42h-.66l-.76-1.33H22.34l-.26,1.33h-.63l.87-4.36h1.62c1,0,1.61.47,1.61,1.28A1.61,1.61,0,0,1,24.24,35.46Zm.69-1.6c0-.53-.38-.79-1-.79H22.84l-.4,2h1.08C24.41,35,24.93,34.62,24.93,33.86Z"/><path class="cls-1" d="M27.35,33.07l-.26,1.33h2.19l-.11.53H27l-.28,1.41h2.55l-.11.54H26l.87-4.36h3.08l-.11.55Z"/><path class="cls-1" d="M31.52,33.07l-.3,1.51h2.19l-.11.54H31.11l-.35,1.76h-.62L31,32.52h3.08l-.11.55Z"/><path class="cls-1" d="M34.09,35.09a2.54,2.54,0,0,1,2.65-2.62,1.82,1.82,0,0,1,2,1.84,2.54,2.54,0,0,1-2.65,2.62A1.82,1.82,0,0,1,34.09,35.09Zm4.07-.74A1.29,1.29,0,0,0,36.69,33a1.94,1.94,0,0,0-2,2,1.29,1.29,0,0,0,1.48,1.32A1.94,1.94,0,0,0,38.16,34.35Z"/><path class="cls-1" d="M42.07,35.46l.79,1.42H42.2l-.76-1.33H40.16l-.26,1.33h-.63l.87-4.36h1.63c1,0,1.6.47,1.6,1.28A1.61,1.61,0,0,1,42.07,35.46Zm.68-1.6c0-.53-.37-.79-1-.79H40.66l-.39,2h1.07C42.23,35,42.75,34.62,42.75,33.86Z"/><path class="cls-1" d="M49.3,32.52l-.87,4.36h-.6l.64-3.15-2.06,2.62h-.29L45,33.67l-.64,3.21h-.6l.88-4.36h.5l1.21,3.07,2.39-3.07Z"/><path class="cls-1" d="M51.12,33.07l-.27,1.33H53l-.1.53h-2.2l-.28,1.41H53l-.1.54H49.74l.87-4.36h3.07l-.1.55Z"/><path class="cls-1" d="M56.7,35.46l.8,1.42h-.66l-.76-1.33H54.8l-.27,1.33h-.62l.87-4.36H56.4c1,0,1.61.47,1.61,1.28A1.61,1.61,0,0,1,56.7,35.46Zm.69-1.6c0-.53-.38-.79-1-.79H55.29l-.39,2H56C56.87,35,57.39,34.62,57.39,33.86Z"/></svg>