<svg id="Capa_1" data-name="Capa 1" xmlns="http://www.w3.org/2000/svg" viewBox="0 0 50 50"><defs><style>.cls-1{fill:#fff;}</style></defs><path class="cls-1" d="M13.14,23.54a.71.71,0,0,0,.25.29,1,1,0,0,0,.36.16,1.47,1.47,0,0,0,.42.06l.32,0a1.08,1.08,0,0,0,.32-.09.71.71,0,0,0,.25-.2.47.47,0,0,0,.1-.32.43.43,0,0,0-.13-.33,1.05,1.05,0,0,0-.34-.22,4.84,4.84,0,0,0-.49-.14l-.55-.15a3.5,3.5,0,0,1-.55-.17,2.12,2.12,0,0,1-.49-.27,1.25,1.25,0,0,1-.34-.41,1.2,1.2,0,0,1-.13-.59,1.34,1.34,0,0,1,.16-.68,1.68,1.68,0,0,1,.44-.48,1.91,1.91,0,0,1,.61-.29,2.72,2.72,0,0,1,.69-.09,3.16,3.16,0,0,1,.76.09,1.75,1.75,0,0,1,.65.29,1.41,1.41,0,0,1,.46.51,1.54,1.54,0,0,1,.16.75H15a1,1,0,0,0-.09-.38.73.73,0,0,0-.22-.24,1.25,1.25,0,0,0-.31-.12,2.25,2.25,0,0,0-.38,0,1.24,1.24,0,0,0-.27,0,.77.77,0,0,0-.25.1.58.58,0,0,0-.18.17.51.51,0,0,0-.07.28.4.4,0,0,0,.28.41,3.11,3.11,0,0,0,.46.15l.78.2.39.11a1.77,1.77,0,0,1,.5.24,1.36,1.36,0,0,1,.43.43,1.28,1.28,0,0,1,.19.7,1.55,1.55,0,0,1-.14.65,1.43,1.43,0,0,1-.4.52,2.06,2.06,0,0,1-.66.34,3.21,3.21,0,0,1-.92.12,3.1,3.1,0,0,1-.81-.11,1.8,1.8,0,0,1-.7-.32A1.58,1.58,0,0,1,12,23.11h1.08A.94.94,0,0,0,13.14,23.54Z"/><path class="cls-1" d="M19.79,24.41a2.37,2.37,0,0,1-1.59.5,2.34,2.34,0,0,1-1.6-.5A1.94,1.94,0,0,1,16,22.87V19.71h1.12v3.16a2.83,2.83,0,0,0,0,.41,1,1,0,0,0,.15.35.89.89,0,0,0,.32.25,1.39,1.39,0,0,0,.55.1,1,1,0,0,0,.82-.27,1.3,1.3,0,0,0,.23-.84V19.71h1.12v3.16A1.93,1.93,0,0,1,19.79,24.41Z"/><path class="cls-1" d="M22.77,19.71a2.18,2.18,0,0,1,.81.14,1.41,1.41,0,0,1,.54.37,1.31,1.31,0,0,1,.31.52,1.85,1.85,0,0,1,0,1.2,1.42,1.42,0,0,1-.31.53,1.5,1.5,0,0,1-.54.36,2,2,0,0,1-.81.14H21.59v1.82H20.47V19.71Zm-.31,2.39a2.22,2.22,0,0,0,.37,0,.64.64,0,0,0,.31-.11.54.54,0,0,0,.22-.23,1,1,0,0,0,0-.78.54.54,0,0,0-.22-.23.76.76,0,0,0-.31-.11,2.22,2.22,0,0,0-.37,0h-.87V22.1Z"/><path class="cls-1" d="M28.17,19.71v.94H25.49v1.09H28v.87H25.49v1.24h2.74v.94H24.37V19.71Z"/><path class="cls-1" d="M30.87,19.71a1.66,1.66,0,0,1,.61.11,1.4,1.4,0,0,1,.47.3,1.23,1.23,0,0,1,.3.45,1.41,1.41,0,0,1,.11.54,1.61,1.61,0,0,1-.19.78,1.22,1.22,0,0,1-.62.5h0a.85.85,0,0,1,.34.18.82.82,0,0,1,.22.27,1.4,1.4,0,0,1,.13.36,2.32,2.32,0,0,1,0,.38c0,.08,0,.18,0,.29s0,.22,0,.33a1.65,1.65,0,0,0,.06.32.63.63,0,0,0,.12.26H31.39a2.2,2.2,0,0,1-.12-.57,6.06,6.06,0,0,0-.06-.64A1.08,1.08,0,0,0,31,23a.86.86,0,0,0-.61-.18H29.25v2H28.13V19.71Zm-.4,2.3a.87.87,0,0,0,.58-.17.7.7,0,0,0,.19-.56.66.66,0,0,0-.19-.53.87.87,0,0,0-.58-.17H29.25V22Z"/><path class="cls-1" d="M34.81,19.71a3.37,3.37,0,0,1,.66.06A1.7,1.7,0,0,1,36,20a1,1,0,0,1,.33.39,1.34,1.34,0,0,1,.12.6,1.15,1.15,0,0,1-.17.64,1.3,1.3,0,0,1-.52.42,1.2,1.2,0,0,1,.7.48A1.55,1.55,0,0,1,36.52,24a1.36,1.36,0,0,1-.4.46,2,2,0,0,1-.58.26,2.39,2.39,0,0,1-.66.08H32.41V19.71Zm-.15,2.06a.87.87,0,0,0,.5-.14.57.57,0,0,0,.19-.47.52.52,0,0,0-.07-.29.58.58,0,0,0-.17-.18.85.85,0,0,0-.24-.09l-.29,0h-1v1.19Zm.07,2.16a1.55,1.55,0,0,0,.31,0,.67.67,0,0,0,.26-.1.55.55,0,0,0,.19-.21.73.73,0,0,0,.06-.32.65.65,0,0,0-.22-.56.93.93,0,0,0-.58-.17H33.53v1.4Z"/><path class="cls-1" d="M36.52,21.22a2.63,2.63,0,0,1,.49-.85,2.14,2.14,0,0,1,.79-.57,2.52,2.52,0,0,1,1.05-.21,2.49,2.49,0,0,1,1,.21,2.14,2.14,0,0,1,.79.57,2.63,2.63,0,0,1,.49.85,3.3,3.3,0,0,1,0,2.09,2.69,2.69,0,0,1-.49.84,2.51,2.51,0,0,1-.79.56,2.66,2.66,0,0,1-1,.2,2.69,2.69,0,0,1-1.05-.2,2.51,2.51,0,0,1-.79-.56,2.69,2.69,0,0,1-.49-.84,3.3,3.3,0,0,1,0-2.09Zm1,1.68a1.65,1.65,0,0,0,.24.54,1.24,1.24,0,0,0,.43.39,1.44,1.44,0,0,0,1.28,0,1.24,1.24,0,0,0,.43-.39,1.65,1.65,0,0,0,.24-.54,2.92,2.92,0,0,0,0-1.27,1.67,1.67,0,0,0-.24-.56,1.08,1.08,0,0,0-.43-.39,1.44,1.44,0,0,0-1.28,0,1.08,1.08,0,0,0-.43.39,1.67,1.67,0,0,0-.24.56,2.92,2.92,0,0,0,0,1.27Z"/><path class="cls-1" d="M43.45,19.71a2.45,2.45,0,0,1,.91.16,1.91,1.91,0,0,1,.74.47,2.19,2.19,0,0,1,.48.78,3.06,3.06,0,0,1,.18,1.1,3.37,3.37,0,0,1-.15,1,2.11,2.11,0,0,1-.43.81,2,2,0,0,1-.72.54,2.4,2.4,0,0,1-1,.19H41.26V19.71Zm-.08,4.14a1.49,1.49,0,0,0,.47-.07,1.19,1.19,0,0,0,.41-.26,1.24,1.24,0,0,0,.28-.48,2.08,2.08,0,0,0,.11-.71,2.84,2.84,0,0,0-.08-.69,1.36,1.36,0,0,0-.24-.53,1.17,1.17,0,0,0-.45-.34,1.79,1.79,0,0,0-.7-.12h-.8v3.2Z"/><path class="cls-1" d="M45.13,19.71h1.25l1.19,2,1.18-2H50l-1.89,3.13v1.95H47v-2Z"/><path class="cls-1" d="M15.55,26.57a1.12,1.12,0,0,0-.25-.28A1,1,0,0,0,15,26.1a1.09,1.09,0,0,0-.4-.07,1.29,1.29,0,0,0-.64.15,1.31,1.31,0,0,0-.42.39,1.67,1.67,0,0,0-.24.56,2.75,2.75,0,0,0-.08.65,2.57,2.57,0,0,0,.08.62,1.65,1.65,0,0,0,.24.54,1.21,1.21,0,0,0,.42.39,1.29,1.29,0,0,0,.64.15,1.05,1.05,0,0,0,.81-.32,1.41,1.41,0,0,0,.35-.82H16.8a2.59,2.59,0,0,1-.22.86,2.26,2.26,0,0,1-.47.66,2,2,0,0,1-.68.41,2.65,2.65,0,0,1-.87.14,2.77,2.77,0,0,1-1.05-.2,2.23,2.23,0,0,1-.78-.56,2.35,2.35,0,0,1-.49-.84,2.89,2.89,0,0,1-.17-1,3,3,0,0,1,.17-1.06,2.31,2.31,0,0,1,.49-.85,2.25,2.25,0,0,1,.78-.57,2.59,2.59,0,0,1,1.05-.21,2.63,2.63,0,0,1,.8.12,2.07,2.07,0,0,1,.67.36,2,2,0,0,1,.49.57,2.37,2.37,0,0,1,.24.78H15.68A1.05,1.05,0,0,0,15.55,26.57Z"/><path class="cls-1" d="M17.83,25.21V30.3H16.71V25.21Z"/><path class="cls-1" d="M20.69,25.21a1.71,1.71,0,0,1,.62.11,1.54,1.54,0,0,1,.47.31,1.23,1.23,0,0,1,.3.44,1.42,1.42,0,0,1,.1.55,1.49,1.49,0,0,1-.19.77,1.14,1.14,0,0,1-.61.5h0a.85.85,0,0,1,.34.18,1,1,0,0,1,.22.28,1.21,1.21,0,0,1,.13.35c0,.13,0,.26.05.38s0,.18,0,.29l0,.33a1.75,1.75,0,0,0,.06.33.68.68,0,0,0,.11.26H21.21a2.3,2.3,0,0,1-.11-.58,6.33,6.33,0,0,0-.06-.64,1,1,0,0,0-.25-.58.79.79,0,0,0-.6-.19H19.07v2H18V25.21Zm-.39,2.3a.81.81,0,0,0,.57-.17.7.7,0,0,0,.2-.55.67.67,0,0,0-.2-.54.86.86,0,0,0-.57-.17H19.07v1.43Z"/><path class="cls-1" d="M25.5,26.57a1.12,1.12,0,0,0-.25-.28,1,1,0,0,0-.34-.19,1,1,0,0,0-.39-.07,1.26,1.26,0,0,0-.64.15,1.24,1.24,0,0,0-.43.39,1.67,1.67,0,0,0-.24.56,2.76,2.76,0,0,0-.07.65,2.56,2.56,0,0,0,.07.62,1.65,1.65,0,0,0,.24.54,1.15,1.15,0,0,0,.43.39,1.26,1.26,0,0,0,.64.15,1,1,0,0,0,.8-.32,1.41,1.41,0,0,0,.35-.82h1.08a2.37,2.37,0,0,1-.22.86,2.09,2.09,0,0,1-.47.66,2,2,0,0,1-.68.41,2.63,2.63,0,0,1-.86.14,2.69,2.69,0,0,1-1.05-.2,2.27,2.27,0,0,1-.79-.56,2.51,2.51,0,0,1-.49-.84,3.13,3.13,0,0,1-.17-1,3.27,3.27,0,0,1,.17-1.06,2.46,2.46,0,0,1,.49-.85,2.29,2.29,0,0,1,.79-.57,2.52,2.52,0,0,1,1.05-.21,2.56,2.56,0,0,1,.79.12,2.07,2.07,0,0,1,.67.36,1.81,1.81,0,0,1,.49.57,2,2,0,0,1,.24.78H25.63A.87.87,0,0,0,25.5,26.57Z"/><path class="cls-1" d="M30.4,29.91a2.39,2.39,0,0,1-1.6.5,2.33,2.33,0,0,1-1.59-.5,1.93,1.93,0,0,1-.57-1.54V25.21h1.12v3.16a2.73,2.73,0,0,0,0,.41,1,1,0,0,0,.15.35.81.81,0,0,0,.32.25,1.18,1.18,0,0,0,.54.1,1,1,0,0,0,.83-.27,1.3,1.3,0,0,0,.23-.84V25.21H31v3.16A2,2,0,0,1,30.4,29.91Z"/><path class="cls-1" d="M32.2,25.21V30.3H31.08V25.21Z"/><path class="cls-1" d="M31.93,26.15v-.94h4.16v.94H34.57V30.3H33.45V26.15Z"/><path class="cls-1" d="M2.71,20.6a4.23,4.23,0,0,1,.61-.51A5.84,5.84,0,0,1,4,19.68a4.89,4.89,0,0,1,.75-.3,5.32,5.32,0,0,1,.79-.18,5.7,5.7,0,0,1,.83,0,2.79,2.79,0,0,1,.81.17,3.61,3.61,0,0,1,.73.38,3.13,3.13,0,0,1,.59.56l0,.05-.74-.27C7.5,20,7.26,19.9,7,19.84l-.71-.15a3.6,3.6,0,0,0-.73-.06,4.53,4.53,0,0,0-.74.09,4.68,4.68,0,0,0-.73.21,6.14,6.14,0,0,0-.7.3l-.34.19a3.62,3.62,0,0,0-.32.22Z"/><path class="cls-1" d="M8.83,20.49a4.25,4.25,0,0,1,.67.43,4.86,4.86,0,0,1,.6.52,5.07,5.07,0,0,1,.52.61,5.47,5.47,0,0,1,.41.71,4.71,4.71,0,0,1,.29.77,2.3,2.3,0,0,1,.09.82,3.13,3.13,0,0,1-.14.81,2.51,2.51,0,0,1-.35.74l-.05,0,0-.78c0-.25,0-.5,0-.74s-.05-.48-.08-.72a3,3,0,0,0-.17-.72,4.07,4.07,0,0,0-.31-.67,6.9,6.9,0,0,0-.42-.63A7,7,0,0,0,9.39,21l-.28-.26a3.65,3.65,0,0,0-.31-.24Z"/><path class="cls-1" d="M10.85,26.29a4.13,4.13,0,0,1-.08.78,6.69,6.69,0,0,1-.2.77,6.88,6.88,0,0,1-.32.74,4.45,4.45,0,0,1-.45.68,4.61,4.61,0,0,1-.57.6,2.42,2.42,0,0,1-.69.45,3.78,3.78,0,0,1-.79.24,2.82,2.82,0,0,1-.82,0V30.5l.7-.32a6.88,6.88,0,0,0,.66-.35c.21-.12.41-.25.61-.39A3.19,3.19,0,0,0,9.47,29a4.51,4.51,0,0,0,.47-.59,4.61,4.61,0,0,0,.38-.65A6.15,6.15,0,0,0,10.6,27a2.59,2.59,0,0,0,.11-.37,2.34,2.34,0,0,0,.09-.38Z"/><path class="cls-1" d="M6.67,30.63a5,5,0,0,1-.77.17,7.14,7.14,0,0,1-.8,0,4.34,4.34,0,0,1-.8-.08,5,5,0,0,1-.78-.21,5.12,5.12,0,0,1-.75-.35,2.75,2.75,0,0,1-.65-.53A2.91,2.91,0,0,1,1.66,29a2.59,2.59,0,0,1-.26-.77l.05,0,.52.57a6.47,6.47,0,0,0,.53.52l.56.47a4,4,0,0,0,.62.39,3.7,3.7,0,0,0,.7.26,3.76,3.76,0,0,0,.74.16,4.87,4.87,0,0,0,.76.06h.39l.39,0Z"/><path class="cls-1" d="M1.24,27.87a4.13,4.13,0,0,1-.47-.63,6,6,0,0,1-.37-.71,6.18,6.18,0,0,1-.26-.76A5.34,5.34,0,0,1,0,25a5.75,5.75,0,0,1,0-.83,2.7,2.7,0,0,1,.21-.8,3.63,3.63,0,0,1,.43-.71,2.8,2.8,0,0,1,.59-.55l0,0c-.1.25-.21.48-.3.72a5.83,5.83,0,0,0-.25.7c-.07.23-.13.46-.19.7a2.92,2.92,0,0,0-.1.73,4.65,4.65,0,0,0,0,.74,6.08,6.08,0,0,0,.16.74q.12.36.27.72c0,.11.11.23.17.34a3.72,3.72,0,0,0,.19.34Z"/><path class="cls-1" d="M8,21.7a3.6,3.6,0,0,1,.5.29,3.82,3.82,0,0,1,.46.36,4.07,4.07,0,0,1,.4.43,3.48,3.48,0,0,1,.34.51,3.53,3.53,0,0,1,.25.56,2.06,2.06,0,0,1,.12.6,2.48,2.48,0,0,1-.06.61,2.13,2.13,0,0,1-.2.55h0l0-.58a5,5,0,0,0-.06-.54L9.56,24a2.52,2.52,0,0,0-.17-.53,3.2,3.2,0,0,0-.26-.48,3,3,0,0,0-.34-.45,3.78,3.78,0,0,0-.39-.41l-.22-.18L8,21.73Z"/><path class="cls-1" d="M9.72,25.9a3.75,3.75,0,0,1-.09.57,5.05,5.05,0,0,1-.18.55,4.2,4.2,0,0,1-.26.52,2.79,2.79,0,0,1-.36.47,3.25,3.25,0,0,1-.42.41,1.88,1.88,0,0,1-.52.28,2.85,2.85,0,0,1-.58.12,1.9,1.9,0,0,1-.58-.05v0l.52-.19a3.48,3.48,0,0,0,.48-.21l.46-.24a2.61,2.61,0,0,0,.43-.31A3.33,3.33,0,0,0,9,27.39a3.75,3.75,0,0,0,.53-1c0-.09.07-.18.1-.27a2.68,2.68,0,0,0,.07-.27Z"/><path class="cls-1" d="M6.45,28.82a3.06,3.06,0,0,1-.54.15,2.6,2.6,0,0,1-.56.06,3.79,3.79,0,0,1-.58,0,3.9,3.9,0,0,1-.57-.13,5.31,5.31,0,0,1-.55-.23,2,2,0,0,1-.49-.37,2.12,2.12,0,0,1-.37-.48,2,2,0,0,1-.24-.56l0,0c.14.14.27.28.41.4s.27.25.41.37l.42.32a2.73,2.73,0,0,0,.47.27,3.81,3.81,0,0,0,.51.17,3.35,3.35,0,0,0,.54.08,5,5,0,0,0,.55,0l.27,0,.27,0Z"/><path class="cls-1" d="M2.43,27.08a5.14,5.14,0,0,1-.32-.49c-.09-.18-.18-.36-.25-.54a3.85,3.85,0,0,1-.22-1.78,2.36,2.36,0,0,1,.17-.59,2.84,2.84,0,0,1,.32-.5,1.77,1.77,0,0,1,.44-.38l0,0c-.08.18-.16.34-.24.51s-.13.34-.19.51a4.28,4.28,0,0,0-.15.51,2.35,2.35,0,0,0-.09.53,3.37,3.37,0,0,0,0,.55A5.3,5.3,0,0,0,2,26a4.27,4.27,0,0,0,.18.54c0,.09.07.18.11.27l.13.25Z"/><path class="cls-1" d="M2.76,22.6a3,3,0,0,1,.29-.49,3.83,3.83,0,0,1,.36-.44,3.08,3.08,0,0,1,.43-.38,2.55,2.55,0,0,1,.5-.3,3.32,3.32,0,0,1,.55-.22,1.91,1.91,0,0,1,.58-.06,2.36,2.36,0,0,1,.59.11,2,2,0,0,1,.53.26v0L6,21.1a4.64,4.64,0,0,0-.53,0L5,21.16a2.36,2.36,0,0,0-.51.12,2.92,2.92,0,0,0-.47.23,2.77,2.77,0,0,0-.45.31,4.61,4.61,0,0,0-.4.37L3,22.4a1.84,1.84,0,0,0-.17.22Z"/><path class="cls-1" d="M3.57,25.62a3.27,3.27,0,0,1-.14-.33A1.89,1.89,0,0,1,3.34,25c0-.12,0-.24,0-.36a2.19,2.19,0,0,1,0-.36,2.33,2.33,0,0,1,.08-.36,1.2,1.2,0,0,1,.43-.59.89.89,0,0,1,.31-.19v0l-.2.28c-.07.09-.12.19-.18.28L3.63,24a1.15,1.15,0,0,0-.11.31,1.91,1.91,0,0,0-.06.33,1.93,1.93,0,0,0,0,.34c0,.11,0,.22,0,.33a1.36,1.36,0,0,1,0,.17l0,.17Z"/><path class="cls-1" d="M4.28,23l.26-.23a1.57,1.57,0,0,1,.3-.2,1.87,1.87,0,0,1,.32-.15,2,2,0,0,1,.35-.09,2.19,2.19,0,0,1,.36,0,1.15,1.15,0,0,1,.37.06,1.37,1.37,0,0,1,.32.16,1,1,0,0,1,.27.24v0l-.33-.11-.32-.08-.31,0a1.22,1.22,0,0,0-.33,0,1.65,1.65,0,0,0-.32.06,1.7,1.7,0,0,0-.32.1,1.77,1.77,0,0,0-.31.15l-.14.09a.71.71,0,0,0-.14.1Z"/><path class="cls-1" d="M7,22.81a1.44,1.44,0,0,1,.32.13,2.38,2.38,0,0,1,.3.18l.28.22a3.11,3.11,0,0,1,.23.28,3.21,3.21,0,0,1,.19.31,1.61,1.61,0,0,1,.1.36,1.15,1.15,0,0,1,0,.37,1.06,1.06,0,0,1-.09.35h0c0-.12,0-.24,0-.35a3,3,0,0,0-.06-.32L8.09,24A2.88,2.88,0,0,0,8,23.72l-.19-.27-.23-.24L7.27,23l-.14-.09L7,22.83Z"/><path class="cls-1" d="M8.32,25.13a2.57,2.57,0,0,1-.24,1,1.73,1.73,0,0,1-.19.31,2.09,2.09,0,0,1-.24.28,1.25,1.25,0,0,1-.3.21,2.3,2.3,0,0,1-.34.12,1.45,1.45,0,0,1-.36,0v0L7,26.93l.29-.17.26-.18.25-.22.19-.27a2.19,2.19,0,0,0,.16-.3,1.75,1.75,0,0,0,.12-.32c0-.06,0-.11,0-.17a1,1,0,0,0,0-.17Z"/><path class="cls-1" d="M6.48,27.13l-.33.13-.34.07a2.17,2.17,0,0,1-.36,0,2,2,0,0,1-.35,0,2,2,0,0,1-.35-.11A1.11,1.11,0,0,1,4.43,27a1.6,1.6,0,0,1-.25-.27A1.68,1.68,0,0,1,4,26.42H4l.27.22a2.48,2.48,0,0,0,.26.19,2.61,2.61,0,0,0,.28.17,1.51,1.51,0,0,0,.29.13,1.94,1.94,0,0,0,.33.07,1.77,1.77,0,0,0,.33,0l.34,0,.16,0,.17,0Z"/></svg>