<svg id="Capa_1" data-name="Capa 1" xmlns="http://www.w3.org/2000/svg" viewBox="0 0 50 50"><defs><style>.cls-1{fill:#fff;}</style></defs><path class="cls-1" d="M4.27,28.78,6,20.33H2.76c0-.19.07-.36.11-.54l.33-1.66c0-.13,0-.13.15-.13h9a.25.25,0,0,1,.12,0c0,.19-.07.38-.11.56L12,20.23c0,.1,0,.1-.12.1h-3c-.12,0-.12,0-.14.11-.12.61-.24,1.21-.37,1.82S8.11,23.72,8,24.45s-.27,1.33-.4,2-.27,1.33-.41,2a2.74,2.74,0,0,1-.05.28s0,.06-.07.05H4.27Z"/><path class="cls-1" d="M42.63,18h4.49c.13,0,.13,0,.11.12l-.42,2.1c0,.1,0,.1-.12.1h-3c-.12,0-.1,0-.13.11l-.39,1.92-.36,1.81-.39,1.91c-.12.58-.23,1.16-.35,1.74l-.18.88c0,.07,0,.08-.1.08H39.13c-.07,0-.07,0-.06-.06s.06-.31.1-.47c.1-.51.2-1,.31-1.53l.39-1.93c.11-.58.23-1.16.34-1.73s.25-1.21.37-1.81c.06-.28.11-.57.17-.85,0-.06,0-.07-.06-.07H37.62c-.06,0-.07,0,0-.07L37.81,19l.18-.91s0,0,0-.06,0,0,.05,0h4.57Z"/><path class="cls-1" d="M22.58,28.78c0-.18.07-.36.1-.53.15-.77.31-1.53.46-2.3l.54-2.71.54-2.68.45-2.29a1.42,1.42,0,0,0,0-.22s0-.05.06-.05h2.65c.12,0,.12,0,.1.11-.27,1.34-.54,2.67-.8,4s-.55,2.73-.82,4.09c-.17.83-.33,1.66-.5,2.49,0,.08,0,.08-.09.08H22.58Z"/><path class="cls-1" d="M31.9,28.77c0-.1,0-.21.07-.32l.48-2.4c.15-.77.31-1.55.46-2.33s.27-1.35.4-2,.28-1.35.41-2c.1-.51.21-1,.31-1.55v0c0-.07,0-.07.09-.07h2.62c.12,0,.12,0,.1.12L36.46,20c-.12.62-.24,1.24-.37,1.86s-.27,1.34-.4,2l-.39,1.94c-.12.64-.25,1.28-.38,1.92l-.18.91s0,0,0,.06,0,.05-.06,0H32A.22.22,0,0,1,31.9,28.77Z"/><path class="cls-1" d="M28,20.24l.06-.28.36-1.84c0-.11,0-.11.13-.11h4.15s.06,0,0,.06-.07.34-.11.51c-.1.53-.21,1.06-.31,1.6,0,.07,0,.07-.1.07H28.09A.12.12,0,0,1,28,20.24Z"/><path class="cls-1" d="M31.44,22.67l-.09.48L31,24.81c0,.08,0,.08-.1.08H27.16c-.07,0-.07,0-.06-.06s0-.19,0-.28c.12-.59.24-1.18.35-1.77,0-.13,0-.13.16-.13h3.67A.23.23,0,0,1,31.44,22.67Z"/><path class="cls-1" d="M32.74,30.63a.18.18,0,0,0,0,.1v1.21a0,0,0,0,1,0,0h0c-.12,0-.1,0-.1-.09V30.37a0,0,0,0,1,0,0h.14s0,0,.07.06l.89,1.22s0,.05.06.07a.09.09,0,0,0,0-.07V30.43s0-.07,0-.08a.22.22,0,0,1,.14,0s0,0,0,0V32a0,0,0,0,1,0,0h-.12s0,0-.07-.05l-.5-.69Z"/><path class="cls-1" d="M37.51,30.63v1.26c0,.1,0,.09-.09.09s-.08,0-.08-.08V30.43c0-.09,0-.08.09-.09a.16.16,0,0,1,.14.07l.91,1.25,0,0a.12.12,0,0,0,0-.08V30.43s0-.07,0-.08a.22.22,0,0,1,.14,0s0,0,0,0v1.55s0,.06,0,.05h0a.15.15,0,0,1-.16-.07l-.87-1.2A.25.25,0,0,0,37.51,30.63Z"/><path class="cls-1" d="M41.53,30.67a.76.76,0,0,0-.57-.19.68.68,0,0,0,0,1.36.77.77,0,0,0,.49-.11.09.09,0,0,0,0-.09v-.4s0-.07.06-.06h0s0,0,0,0v.53a.09.09,0,0,1,0,.06.88.88,0,0,1-1.41-.48.82.82,0,0,1,.64-1,.88.88,0,0,1,.74.15c.07.05.07.05,0,.12Z"/><path class="cls-1" d="M15.17,30.9v.45a.7.7,0,0,1-.2.49.77.77,0,0,1-.41.16.86.86,0,0,1-.28,0,.57.57,0,0,1-.46-.51,1.49,1.49,0,0,1,0-.21v-.85c0-.08,0-.08.08-.08h0a0,0,0,0,1,0,0v.88a.84.84,0,0,0,0,.27.42.42,0,0,0,.36.31.41.41,0,0,0,.22,0,.44.44,0,0,0,.39-.36,1.1,1.1,0,0,0,0-.18v-.87s0-.07,0-.08a.22.22,0,0,1,.14,0s0,0,0,.06Z"/><path class="cls-1" d="M5,30.56l-.1.12a.69.69,0,0,0-1,0,.68.68,0,0,0,0,.91.71.71,0,0,0,1,0s.06.06.09.09a.85.85,0,0,1-1.15.06.82.82,0,0,1-.08-1.19A.87.87,0,0,1,5,30.56Z"/><path class="cls-1" d="M12.38,31.75A.87.87,0,0,1,12,32a.84.84,0,0,1-1-.66.82.82,0,0,1,.64-1,.86.86,0,0,1,.74.16c.06,0,.06,0,0,.11l0,0s0,0-.06,0a.71.71,0,0,0-.34-.16.67.67,0,0,0-.8.59.68.68,0,0,0,.62.76.69.69,0,0,0,.48-.15c.08-.05.08-.05.13,0Z"/><path class="cls-1" d="M19,31.24v.65c0,.1,0,.09-.1.09h0s-.05,0-.05,0V30.62c0-.12,0-.12-.13-.12H18.4c-.08,0-.08,0-.08-.09v0a0,0,0,0,1,0,0h1.13s.07,0,.08,0a.19.19,0,0,1,0,.13s0,0-.05,0h-.4c-.09,0-.08,0-.08.07v.67Z"/><path class="cls-1" d="M23.05,31.24v-.68c0-.06,0-.06-.07-.06a2.81,2.81,0,0,0-.41,0c-.05,0-.07,0-.07-.07a0,0,0,0,0,0-.05s0-.05.05-.05h1.17s0,0,0,0v.06c0,.05,0,.07-.06.07a2.28,2.28,0,0,0-.37,0c-.13,0-.11,0-.11.1V32s0,0,0,0h-.13s0,0,0,0v-.71Z"/><path class="cls-1" d="M16.76,31.16v-.74c0-.08,0-.08.08-.08h0s.05,0,.05,0v1.55s0,.06-.05.05h0c-.11,0-.1,0-.1-.1Z"/><path class="cls-1" d="M35.54,31.15v-.73c0-.08,0-.08.08-.08h.05s0,0,0,0v1.49c0,.12,0,.13-.13.11s0,0,0,0v-.79Z"/><path class="cls-1" d="M6.64,31.17v.75c0,.06,0,.06-.07.06H6.52s0,0,0-.05V30.38s0,0,0,0,.14,0,.14.11Z"/><path class="cls-1" d="M30.92,31.16c0,.25,0,.5,0,.75,0,.07,0,.07-.07.07h-.06s0,0,0,0V30.38s0,0,0,0h0c.11,0,.11,0,.11.11Z"/><path class="cls-1" d="M22.22,20.39a2.52,2.52,0,0,0-.88-1.54,3.36,3.36,0,0,0-1.49-.7A6.23,6.23,0,0,0,18.36,18H13.67c-.05,0-.07,0-.08.07s-.05.27-.08.4c-.24,1.24-.49,2.48-.74,3.72s-.5,2.49-.74,3.73l-.54,2.68a1.13,1.13,0,0,0,0,.18h2.75s.07,0,.08-.07c.16-.81.32-1.62.49-2.43,0-.13.05-.27.08-.4s0-.09.11-.09h1.88c.1,0,.08,0,.12.09.3.94.61,1.87.91,2.81,0,.1,0,.08.12.08h3s.06,0,.09,0l-1.5-3.47.18-.09.18-.09a4.24,4.24,0,0,0,1.88-2,4.54,4.54,0,0,0,.39-1.43A4.49,4.49,0,0,0,22.22,20.39Zm-2.86,2.06a1.77,1.77,0,0,1-1.08,1,2.55,2.55,0,0,1-.77.14c-.71,0-1.43,0-2.14,0h0l.18-.88c.15-.74.29-1.48.44-2.22,0-.06,0-.14.05-.18s.12,0,.19,0h1.89a2,2,0,0,1,.63.09,1.13,1.13,0,0,1,.69.54,1.23,1.23,0,0,1,.14.57A2.25,2.25,0,0,1,19.36,22.45Z"/><path class="cls-1" d="M26.05,31.43s.06,0,.09-.05a.47.47,0,0,0,.25-.3.81.81,0,0,0,0-.31.5.5,0,0,0-.29-.37.78.78,0,0,0-.31-.06H25.2s-.05,0-.05.05,0,0,0,.05v1.44s0,0,0,.06,0,0,.05,0h.06c.06,0,.06,0,.06-.06v-.39c0-.07,0-.08.08-.08s.28,0,.42,0,.07,0,.1.06l.28.42s0,.05.05.05h.18Zm-.28-.13h-.35c-.11,0-.1,0-.1-.1v-.31c0-.11,0-.22,0-.34a.05.05,0,0,1,.06-.06h.45l.15,0a.39.39,0,0,1-.05.76Z"/><path class="cls-1" d="M9.16,31.42l0,0a.5.5,0,0,0,.34-.52.51.51,0,0,0-.41-.52l-.18,0H8.33c-.05,0-.07,0-.06.06v1.48c0,.12,0,.1.11.1s.06,0,.06-.06v-.41s0-.06.05-.06a3.08,3.08,0,0,0,.43,0,.13.13,0,0,1,.12.06c.08.14.18.28.27.42s0,.05,0,.05h.18Zm-.23-.12H8.5c-.05,0-.06,0-.06-.06v-.69s0-.06.05-.06H9a.38.38,0,0,1,.32.51.35.35,0,0,1-.2.23A.59.59,0,0,1,8.93,31.3Z"/><path class="cls-1" d="M29.36,31.94c-.23-.51-.47-1-.7-1.55,0,0,0,0,0,0a.45.45,0,0,0-.16,0s0,0-.05.07c-.18.39-.36.78-.53,1.18l-.18.39h.12c.05,0,.07,0,.09-.05s.1-.22.14-.33a.07.07,0,0,1,.08-.05H29a.08.08,0,0,1,.07,0c0,.09.07.17.11.26s.06.14.21.13,0,0,0,0Zm-1.19-.55c.12-.29.25-.56.37-.86l.39.86Z"/></svg>