<svg id="Capa_1" data-name="Capa 1" xmlns="http://www.w3.org/2000/svg" viewBox="0 0 50 50"><defs><style>.cls-1{fill:#fff;}</style></defs><path class="cls-1" d="M11.87,18a5.56,5.56,0,1,0,5.56,5.55A5.56,5.56,0,0,0,11.87,18Zm0,10.46a4.91,4.91,0,1,1,4.91-4.91A4.9,4.9,0,0,1,11.87,28.46Z"/><path class="cls-1" d="M11.66,23.74s.53.33,0,.54A2.65,2.65,0,0,1,10,24.14a5.06,5.06,0,0,1-1.23-.56A2.46,2.46,0,0,1,8.05,23c-.08-.14-.15-.31,0-.45a3,3,0,0,1,.78-.28c.7-.15,1.23-.25,1.39-.08a.12.12,0,0,1,0,.21,12.81,12.81,0,0,0-1.43.46,2.26,2.26,0,0,0,1.15.66s.35.07.42.07c.61,0,1.21-.13,1.59.35"/><path class="cls-1" d="M13.3,22.74a4.48,4.48,0,0,1,1,.91c.24.34.55.55.72.43s-1-3-1-3l-.31-.88c-.1-.28-.32-.72-.65-.57s0,.76.08,1.11c.42.92,1.07,1.68,1.45,2.6-.19-.15-.28-.33-.5-.53s-.67-.61-1.06-.42-.27.64-.24.95a5.69,5.69,0,0,1-.16,2.33c-.28.68-1.27,1.44-1.21,1.62s.57.42.84.46a.76.76,0,0,0,.8-.38c.77-1.46.38-3.07.27-4.6"/><path class="cls-1" d="M10.8,20.73a.06.06,0,0,0,0,0v0a.86.86,0,0,0,0,.39,1.27,1.27,0,0,0,.21.46.78.78,0,0,0,.94.37.73.73,0,0,0,.16-.15c.75-.86-.3-1.92-.83-1.64a.93.93,0,0,0-.45.48v0"/><path class="cls-1" d="M43.42,31.53a.72.72,0,0,1-.21.25,1,1,0,0,1-.33.16,1.31,1.31,0,0,1-.41.06,1.42,1.42,0,0,1-.42-.06,1,1,0,0,1-.34-.17.78.78,0,0,1-.24-.27.8.8,0,0,1-.11-.35h.41a.52.52,0,0,0,.24.34.76.76,0,0,0,.46.13.78.78,0,0,0,.46-.12.36.36,0,0,0,.17-.29.5.5,0,0,0,0-.12A.31.31,0,0,0,43,31l-.21-.09-.36-.07L42,30.74a1,1,0,0,1-.3-.12.64.64,0,0,1-.2-.2.66.66,0,0,1,0-.57.76.76,0,0,1,.18-.23,1,1,0,0,1,.31-.18,1.35,1.35,0,0,1,.43-.06,1.13,1.13,0,0,1,.71.21.78.78,0,0,1,.31.57H43a.41.41,0,0,0-.2-.3.72.72,0,0,0-.4-.1.7.7,0,0,0-.4.1.29.29,0,0,0-.16.25.36.36,0,0,0,0,.11.24.24,0,0,0,.11.08.58.58,0,0,0,.19.07l.31.06.39.07a1,1,0,0,1,.31.13.5.5,0,0,1,.22.21.61.61,0,0,1,.08.35.77.77,0,0,1-.07.34m-2.29,0a.72.72,0,0,1-.21.25,1,1,0,0,1-.33.16,1.31,1.31,0,0,1-.41.06,1.42,1.42,0,0,1-.42-.06,1,1,0,0,1-.34-.17.78.78,0,0,1-.24-.27.8.8,0,0,1-.11-.35h.41a.54.54,0,0,0,.23.34.81.81,0,0,0,.47.13.78.78,0,0,0,.46-.12.35.35,0,0,0,.16-.29.49.49,0,0,0,0-.12A.31.31,0,0,0,40.7,31l-.21-.09-.36-.07a3.32,3.32,0,0,1-.41-.08,1.25,1.25,0,0,1-.31-.12.72.72,0,0,1-.19-.2.66.66,0,0,1,0-.57.76.76,0,0,1,.18-.23,1,1,0,0,1,.31-.18,1.35,1.35,0,0,1,.43-.06,1.13,1.13,0,0,1,.71.21.78.78,0,0,1,.31.57h-.42a.44.44,0,0,0-.2-.3.72.72,0,0,0-.4-.1.76.76,0,0,0-.41.1.31.31,0,0,0-.16.25.2.2,0,0,0,0,.11.24.24,0,0,0,.11.08.58.58,0,0,0,.19.07l.3.06.39.07a.93.93,0,0,1,.32.13.5.5,0,0,1,.22.21.7.7,0,0,1,.08.35.77.77,0,0,1-.07.34m-2.67-1.1a1.39,1.39,0,0,0-.12-.28,1.29,1.29,0,0,0-.19-.21.79.79,0,0,0-.23-.14.86.86,0,0,0-.27-.05.8.8,0,0,0-.26.05.94.94,0,0,0-.24.13,1.29,1.29,0,0,0-.19.21.74.74,0,0,0-.12.29Zm.39.73a1.13,1.13,0,0,1-.43.62,1.29,1.29,0,0,1-.74.22,1.27,1.27,0,0,1-1.18-.79,1.27,1.27,0,0,1-.1-.52,1.25,1.25,0,0,1,.1-.51,1.29,1.29,0,0,1,.26-.42,1.6,1.6,0,0,1,.4-.28,1.16,1.16,0,0,1,.49-.1,1.26,1.26,0,0,1,.88.38,1.51,1.51,0,0,1,.28.44,1.64,1.64,0,0,1,.1.6h-2.1a1.29,1.29,0,0,0,.1.35,1,1,0,0,0,.2.25.77.77,0,0,0,.27.17.94.94,0,0,0,.3.05.84.84,0,0,0,.45-.12.81.81,0,0,0,.29-.34Zm-2.72.78h-.41V30.42a.77.77,0,0,0-.16-.48.55.55,0,0,0-.45-.18.59.59,0,0,0-.27,0,.7.7,0,0,0-.34.34.75.75,0,0,0,0,.26v1.53H34v-2.5h.4v.27a.93.93,0,0,1,.73-.33,1,1,0,0,1,.4.08.84.84,0,0,1,.31.22.88.88,0,0,1,.18.33,1.18,1.18,0,0,1,.07.43Zm-2.41,0a1.33,1.33,0,0,1-.4,0,.83.83,0,0,1-.31-.16.93.93,0,0,1-.2-.3,1.16,1.16,0,0,1-.07-.42v-1.2H32.4v-.39h.34V28.9h.41v.54h.56v.39h-.56V31a.7.7,0,0,0,0,.27.42.42,0,0,0,.13.16.38.38,0,0,0,.18.09.81.81,0,0,0,.22,0Zm-1.62,0h-.41v-2.5h.41Zm0-2.88h-.41v-.48h.41Zm-1.27.39h.57v.39h-.57v2.1h-.41v-2.1h-.34v-.39h.34v-.1a1,1,0,0,1,.29-.81.83.83,0,0,1,.69-.19v.38a.52.52,0,0,0-.42.11.39.39,0,0,0-.12.23,1.49,1.49,0,0,0,0,.28Z"/><path class="cls-1" d="M20.71,26.43c1.11-.08,3.94-.95,4.12-.48s-3.06,1.59-4.58,1.59c-.69,0-1.28-.38-1.28-.89,0-1.59,3.93-5.2,3.93-5.57,0-.15-.4-.15-.53-.15-.3,0-2,.51-2.56.53s-1.29,0-1.36-.42,2.1-1.17,3.49-1.17c1.15,0,2.49.48,2.49,1.4,0,.43-3.2,4.3-3.72,5.16"/><path class="cls-1" d="M28,21.92c-.14,1-.44,2-.58,2.95-.07.57-.48,2.56-1.21,2.56-.15,0-.3,0-.45,0-.67,0-1.21-3.26-1.21-3.87,0-1,.06-3.21.71-4l.22,0c.5,0,.93.09.93.69v.09c-.07.28-.27.59-.36.88a7.76,7.76,0,0,0-.42,2.43A3.23,3.23,0,0,0,26,25.27c.17.06.38-1,.4-1.1.21-1,.36-2.57.63-3.44.15-.14.1-.29.6-.32a.63.63,0,0,1,.51.5,6.64,6.64,0,0,1-.14,1"/><path class="cls-1" d="M33.8,28c-.27,0-.35-.22-.39-.44-.17-.93-.08-1.9-.2-2.83-.36.56-.69,1.15-1,1.73-.19.34-.58.78-1,.78-1,0-.85-4.73-.89-5.54A13.9,13.9,0,0,0,29,27c-.17.21-.31.37-.59.37a1.63,1.63,0,0,1-.45-.07v-.18c0-1.44.56-7,2.46-7a.9.9,0,0,1,.87.39c.32.43.27,3.41.3,4.14.35-.66,1.18-3,2-3,1.15,0,.86,1.39.86,2.14,0,1.15.09,2.31.09,3.47,0,.29-.51.67-.79.67"/><path class="cls-1" d="M36.15,27.5a4.22,4.22,0,0,1-.49,0c-.19,0-.77,0-.77-.29,0-.13.13-.21.22-.27a2.52,2.52,0,0,1,.65-.18c.34-.08,1.83-.86,1.83-1.23,0-.84-1.89-1.5-1.89-2.11,0-1,1.95-2.19,1.95-2.86,0-.25-.41-.26-.57-.26a2.51,2.51,0,0,0-1.24.28,2.32,2.32,0,0,0-.06.59c0,1.72.12,3.43.27,5.15a1.69,1.69,0,0,1-.54.12c-.11,0-.26,0-.26-.17,0-1.15-.31-2.29-.35-3.44,0-.51,0-1-.06-1.52a6.37,6.37,0,0,1-.1-.63c0-.71,2-1.1,2.55-1.1s1.39.05,1.39.7-1.49,2.54-2.19,2.92c.06.18,2.31,1.1,2.31,2.34,0,.93-1.89,1.83-2.65,1.92"/><path class="cls-1" d="M43.41,27.51c.31.06-.34-1.3-.57-3.22-.16-1.16-.1-3.21-.87-4.13a.91.91,0,0,0-.82-.31C39.53,19.85,39,24,39,25.28a6.08,6.08,0,0,0,.33,2l.23,0a1.2,1.2,0,0,0,.64-.17,6.94,6.94,0,0,1-.1-1.29c0-.13,0-.26,0-.4.58-.07,1.16-.11,1.74-.19a2.75,2.75,0,0,0,1.53,2.29m-1.74-3.36a12.76,12.76,0,0,0-1.51.1c0-.52.24-3.2.94-3.2.13,0,.22.65.24.77.13.77.2,1.55.33,2.33"/><path class="cls-1" d="M43.11,20.3c.09,0,.17,0,.17-.1s-.07-.09-.14-.09H43v.19Zm-.2-.28h.25c.14,0,.22.06.22.18a.17.17,0,0,1-.18.18l.19.28h-.1l-.18-.27H43v.27h-.09Zm.67.31a.46.46,0,1,0-.45.47.46.46,0,0,0,.45-.47m-.45-.54a.55.55,0,1,1-.56.54.55.55,0,0,1,.56-.54"/></svg>